# Made in Blockbench 5.1.6
mtllib materials.mtl

o beveled_cuboid
v 0.375 1.625 0.1875
v 0.375 1.625 -0.1875
v 0.375 0.125 0.1875
v 0.375 0.125 -0.1875
v -0.375 0.125 0.1875
v -0.375 0.125 -0.1875
v -0.5 0.3125 0.1875
v -0.4375 1.4375 0.1875
v -0.5 0.3125 -0.1875
v -0.4375 1.4375 -0.1875
v 0.5 0.3125 0.1875
v 0.5 1.4375 0.1875
v 0.5 0.3125 -0.1875
v 0.5 1.4375 -0.1875
v 0.375 0.3125 -0.25
v 0.375 1.4375 -0.25
v -0.375 0.3125 -0.25
v -0.1875 1.5 -0.25
v 0.375 0.3125 0.25
v 0.375 1.4375 0.25
v -0.375 0.3125 0.25
v -0.1875 1.5 0.25
v 0 1.625 -0.1875
v 0 1.625 0.1875
v 0 1.4375 0.25
v 0 0.3125 0.25
v 0 0.125 0.1875
v 0 0.125 -0.1875
v 0 0.3125 -0.25
v 0 1.4375 -0.25
vt 0.09375 0.5374140625
vt 0 0.5374140625
vt 0 0.2561640625
vt 0.09375 0.2561640625
vt 0.203125 0.3125
vt 0.203125 0.59375
vt 0.109375 0.59375
vt 0.109375 0.3125
vt 0.21875 0.5
vt 0.3125 0.5
vt 0.3125 0.59375
vt 0.21875 0.59375
vt 0.3164038293788668 0.669340625
vt 0.4101538293788668 0.669340625
vt 0.4101538293788668 0.950590625
vt 0.3632788293788668 0.966215625
vt 0.17578367897692018 0.9662143668680121
vt 0.12890867897692018 0.9505893668680121
vt 0.12890867897692018 0.6693393668680121
vt 0.22265867897692018 0.6693393668680121
vt 0.09375 0.59375
vt 0 0.59375
vt 0 0.5374140625
vt 0.09375 0.5374140625
vt 0 0.2561640625
vt 0 0.19982656249999997
vt 0.09375 0.19982656249999997
vt 0.09375 0.2561640625
vt 0.5625 0.8828125
vt 0.65625 0.8828125
vt 0.65625 0.9375
vt 0.5625 0.9375
vt 0.3164038293788668 0.6199296875
vt 0.4101538293788668 0.6199296875
vt 0.4101538293788668 0.669340625
vt 0.3164038293788668 0.669340625
vt 0.22265867897692018 0.6693393668680121
vt 0.12890867897692018 0.6693393668680121
vt 0.12890867897692018 0.6199284293680121
vt 0.22265867897692018 0.6199284293680121
vt 0.00021961647692017583 0.6693393668680121
vt 0.03515867897692018 0.6693393668680121
vt 0.03515867897692018 0.9505893668680121
vt 0.00021961647692017583 0.9505893668680121
vt 0.5039038293788668 0.950590625
vt 0.5039038293788668 0.669340625
vt 0.5388428918788668 0.669340625
vt 0.5388428918788668 0.950590625
vt 0.17578367897692018 0.9662143668680121
vt 0.2226586622653462 0.6693394727079802
vt 0.25759288352307985 0.6699210855470898
vt 0.23893986499549175 0.9506932326934697
vt 0.2814696081211332 0.6699222378391096
vt 0.3164038293788668 0.669340625
vt 0.3632788126672929 0.9662155191600319
vt 0.30012262664872136 0.9506943849854894
vt 0.5039038293788668 0.6199299918680121
vt 0.5384917587067752 0.6643996500773229
vt 0.5039038293788668 0.669340625
vt 0.3164038293788668 0.6199296875
vt 0.3164038293788668 0.669340320631988
vt 0.28181590005095847 0.6643993457093109
vt 0.03515867897692018 0.6199284293680121
vt 0.03515867897692018 0.6693390625000001
vt 0.0005707496490118535 0.664398087577323
vt 0.22265867897692018 0.6199287337360241
vt 0.2572466083048285 0.664398391945335
vt 0.22265867897692018 0.6693393668680121
vt 0.5039038293788668 1
vt 0.5039038293788668 0.9505893668680121
vt 0.5384917587067751 0.9555303417906891
vt 0.03515867897692018 1
vt 0.0005707496490118258 0.9555303417906892
vt 0.03515867897692018 0.9505893668680121
vt 0.3125 0.484375
vt 0.21875 0.484375
vt 0.21875 0.390625
vt 0.3125 0.390625
vt 0.5039038293788668 1
vt 0.4101538293788668 1
vt 0.4101538293788668 0.950590625
vt 0.5039038293788668 0.950590625
vt 0.5039038293788668 0.950590625
vt 0.4101538293788668 0.950590625
vt 0.4101538293788668 0.669340625
vt 0.5039038293788668 0.669340625
vt 0.5039038293788668 0.669340625
vt 0.4101538293788668 0.669340625
vt 0.4101538293788668 0.6199296875
vt 0.5039038293788668 0.6199296875
vt 0.40625 0.59375
vt 0.3125 0.59375
vt 0.3125 0.5
vt 0.40625 0.5
vt 0.03515867897692018 0.6199284293680121
vt 0.12890867897692018 0.6199284293680121
vt 0.12890867897692018 0.6693393668680121
vt 0.03515867897692018 0.6693393668680121
vt 0.03515867897692018 0.6693393668680121
vt 0.12890867897692018 0.6693393668680121
vt 0.12890867897692018 0.9505893668680121
vt 0.03515867897692018 0.9505893668680121
vt 0.03515867897692018 0.9505893668680121
vt 0.12890867897692018 0.9505893668680121
vt 0.12890867897692018 0.9999987418680121
vt 0.03515867897692018 0.9999987418680121
vt 0.453125 0.3984375
vt 0.4375 0.453125
vt 0.34375 0.453125
vt 0.328125 0.3984375
vt 0.546875 0.544340625
vt 0.546875 0.59375
vt 0.421875 0.59375
vt 0.421875 0.544340625
vt 0.59375 0.3984375
vt 0.578125 0.453125
vt 0.484375 0.453125
vt 0.46875 0.3984375
vt 0.5625 1
vt 0.5625 0.953125
vt 0.6875 0.953125
vt 0.6875 1
vt 0.12890867897692018 0.9505893668680121
vt 0.17604397146522935 0.9654121861700571
vt 0.12890867897692018 0.9999991752323203
vt 0.36301853689055763 0.9654130109377368
vt 0.4101538293788668 0.9505901916356918
vt 0.4101538293788668 1
vt 0.4375 0.4799171875
vt 0.53125 0.4799171875
vt 0.546875 0.544340625
vt 0.421875 0.544340625
vn 1 0 0
vn -0.9984603532054125 0.05547001962252291 0
vn 0 -1 0
vn 0 0 1
vn 0 0 -1
vn 0.8320502943378438 0.5547001962252291 0
vn 0.8320502943378438 -0.5547001962252291 0
vn -0.8320502943378438 -0.5547001962252291 0
vn 0 -0.316227766016838 0.948683298050514
vn 0 -0.316227766016838 -0.948683298050514
vn 0.44721359549995804 0 -0.8944271909999161
vn 0.44721359549995804 0 0.8944271909999161
vn -0.4461028107407831 0.07043728590643944 -0.8922056214815662
vn -0.4461028107407831 0.07043728590643944 0.8922056214815662
vn 0.42857142857142866 -0.28571428571428575 0.8571428571428573
vn -0.42857142857142866 -0.28571428571428575 0.8571428571428573
vn 0.42857142857142866 -0.28571428571428575 -0.8571428571428573
vn -0.42857142857142866 -0.28571428571428575 -0.8571428571428573
vn 0.42857142857142866 0.28571428571428575 0.8571428571428573
vn 0.42857142857142866 0.28571428571428575 -0.8571428571428573
vn 0 1 0
vn 0 0.316227766016838 0.948683298050514
vn 0 0 1
vn 0 -0.316227766016838 0.948683298050514
vn 0 -1 0
vn 0 -0.316227766016838 -0.948683298050514
vn 0 0 -1
vn 0 0.316227766016838 -0.948683298050514
vn 0.5547001962252291 -0.8320502943378438 0
vn 0.316227766016838 0.948683298050514 0
vn 0.5547001962252291 -0.8320502943378438 0
vn 0.316227766016838 0.948683298050514 0
vn 0.10482848367219183 0.3144854510165755 -0.9434563530497265
vn 0.10482848367219183 0.3144854510165755 0.9434563530497265
vn -0.242535625036333 0.970142500145332 0
usemtl m_fbce4cc0-bda0-1368-efab-31a6bc1e7604
f 14/1/1 12/2/1 11/3/1 13/4/1
f 7/5/2 8/6/2 10/7/2 9/8/2
f 6/9/3 28/10/3 27/11/3 5/12/3
f 21/13/4 26/14/4 25/15/4 22/16/4
f 18/17/5 30/18/5 29/19/5 17/20/5
f 2/21/6 1/22/6 12/23/6 14/24/6
f 11/25/7 3/26/7 4/27/7 13/28/7
f 6/29/8 5/30/8 7/31/8 9/32/8
f 5/33/9 27/34/9 26/35/9 21/36/9
f 17/37/10 29/38/10 28/39/10 6/40/10
f 13/41/11 15/42/11 16/43/11 14/44/11
f 20/45/12 19/46/12 11/47/12 12/48/12
f 18/49/13 17/50/13 9/51/13 10/52/13
f 7/53/14 21/54/14 22/55/14 8/56/14
f 3/57/15 11/58/15 19/59/15
f 5/60/16 21/61/16 7/62/16
f 4/63/17 15/64/17 13/65/17
f 6/66/18 9/67/18 17/68/18
f 1/69/19 20/70/19 12/71/19
f 2/72/20 14/73/20 16/74/20
f 2/75/21 23/76/21 24/77/21 1/78/21
f 1/79/22 24/80/22 25/81/22 20/82/22
f 20/83/23 25/84/23 26/85/23 19/86/23
f 19/87/24 26/88/24 27/89/24 3/90/24
f 3/91/25 27/92/25 28/93/25 4/94/25
f 4/95/26 28/96/26 29/97/26 15/98/26
f 15/99/27 29/100/27 30/101/27 16/102/27
f 16/103/28 30/104/28 23/105/28 2/106/28
f 18/107/29 23/108/29 24/109/29 22/110/29
f 22/111/30 25/112/30 30/113/30 18/114/30
f 18/115/31 23/116/31 24/117/31 22/118/31
f 22/119/32 25/120/32 30/121/32 18/122/32
f 30/123/33 18/124/33 23/125/33
f 22/126/34 25/127/34 24/128/34
f 10/129/35 8/130/35 22/131/35 18/132/35
o tube
v -0.25295083029161075 1.442585125172262 0.06249999999999997
v -0.41143267844437303 1.7824505453110056 0.06249999999999997
v -0.2627490831963323 1.4380161248062509 0.036399512518274606
v -0.4212309313490946 1.7778815449449945 0.036399512518274606
v -0.21976940466900308 1.4580578780485844 0.025888347648318426
v -0.3782512528217654 1.797923298187328 0.025888347648318426
v -0.24342447971914338 1.4470273353984726 0.015077171748838583
v -0.4019063278719057 1.7868927555372163 0.015077171748838583
v -0.21976940466900308 1.4580578780485844 -0.02588834764831846
v -0.3782512528217654 1.797923298187328 -0.02588834764831846
v -0.24342447971914338 1.4470273353984726 -0.015077171748838622
v -0.4019063278719057 1.7868927555372163 -0.015077171748838622
v -0.25295083029161075 1.442585125172262 -0.06250000000000003
v -0.41143267844437303 1.7824505453110056 -0.06250000000000003
v -0.2627490831963323 1.4380161248062509 -0.03639951251827465
v -0.4212309313490946 1.7778815449449945 -0.03639951251827465
v -0.29987645242597666 1.4207033482073195 -0.06250000000000003
v -0.45835830057873894 1.7605687683460631 -0.06250000000000003
v -0.29007819952125513 1.4252723485733305 -0.036399512518274654
v -0.4485600476740174 1.7651377687120742 -0.036399512518274654
v -0.33305787804858433 1.405230595330997 -0.025888347648318502
v -0.4915397262013466 1.7450960154697406 -0.025888347648318502
v -0.309402802998444 1.4162611379811085 -0.015077171748838646
v -0.4678846511512063 1.7561265581198522 -0.015077171748838646
v -0.33305787804858433 1.405230595330997 0.025888347648318436
v -0.4915397262013466 1.7450960154697406 0.025888347648318436
v -0.309402802998444 1.4162611379811085 0.01507717174883859
v -0.4678846511512063 1.7561265581198522 0.01507717174883859
v -0.2998764524259767 1.4207033482073192 0.062499999999999965
v -0.458358300578739 1.7605687683460631 0.062499999999999965
v -0.29007819952125513 1.4252723485733305 0.0363995125182746
v -0.44856004767401747 1.7651377687120742 0.0363995125182746
vt 0.609375 0.4375
vt 0.625 0.4375
vt 0.625 0.53125
vt 0.609375 0.53125
vt 0.3515625 0.375
vt 0.34375 0.375
vt 0.34375 0.28125
vt 0.3515625 0.28125
vt 0.26939375 0.993475
vt 0.274725 0.98814375
vt 0.28125 0.990846875
vt 0.272096875 1
vt 0.584596875 0.5
vt 0.59375 0.509153125
vt 0.587225 0.51185625
vt 0.58189375 0.506525
vt 0.5625 0.765625
vt 0.578125 0.765625
vt 0.578125 0.859375
vt 0.5625 0.859375
vt 0.6328125 0.859375
vt 0.625 0.859375
vt 0.625 0.765625
vt 0.6328125 0.765625
vt 0.274725 0.98814375
vt 0.274725 0.98060625
vt 0.28125 0.977903125
vt 0.28125 0.990846875
vt 0.59375 0.509153125
vt 0.59375 0.522096875
vt 0.587225 0.51939375
vt 0.587225 0.51185625
vt 0.59375 0.546875
vt 0.609375 0.546875
vt 0.609375 0.640625
vt 0.59375 0.640625
vt 0.3203125 0.375
vt 0.3125 0.375
vt 0.3125 0.28125
vt 0.3203125 0.28125
vt 0.274725 0.98060625
vt 0.26939375 0.975275
vt 0.272096875 0.96875
vt 0.28125 0.977903125
vt 0.59375 0.522096875
vt 0.584596875 0.53125
vt 0.58189375 0.524725
vt 0.587225 0.51939375
vt 0.5625 0.65625
vt 0.578125 0.65625
vt 0.578125 0.75
vt 0.5625 0.75
vt 0.6328125 0.75
vt 0.625 0.75
vt 0.625 0.65625
vt 0.6328125 0.65625
vt 0.26939375 0.975275
vt 0.26185625 0.975275
vt 0.259153125 0.96875
vt 0.272096875 0.96875
vt 0.584596875 0.53125
vt 0.571653125 0.53125
vt 0.57435625 0.524725
vt 0.58189375 0.524725
vt 0.609375 0.328125
vt 0.625 0.328125
vt 0.625 0.421875
vt 0.609375 0.421875
vt 0.6328125 0.640625
vt 0.625 0.640625
vt 0.625 0.546875
vt 0.6328125 0.546875
vt 0.26185625 0.975275
vt 0.256525 0.98060625
vt 0.25 0.977903125
vt 0.259153125 0.96875
vt 0.571653125 0.53125
vt 0.5625 0.522096875
vt 0.569025 0.51939375
vt 0.57435625 0.524725
vt 0.59375 0.765625
vt 0.609375 0.765625
vt 0.609375 0.859375
vt 0.59375 0.859375
vt 0.2265625 0.375
vt 0.21875 0.375
vt 0.21875 0.28125
vt 0.2265625 0.28125
vt 0.256525 0.98060625
vt 0.256525 0.98814375
vt 0.25 0.990846875
vt 0.25 0.977903125
vt 0.5625 0.522096875
vt 0.5625 0.509153125
vt 0.569025 0.51185625
vt 0.569025 0.51939375
vt 0.59375 0.65625
vt 0.609375 0.65625
vt 0.609375 0.75
vt 0.59375 0.75
vt 0.2890625 0.375
vt 0.28125 0.375
vt 0.28125 0.28125
vt 0.2890625 0.28125
vt 0.256525 0.98814375
vt 0.26185625 0.993475
vt 0.259153125 1
vt 0.25 0.990846875
vt 0.5625 0.509153125
vt 0.571653125 0.5
vt 0.57435625 0.506525
vt 0.569025 0.51185625
vt 0.5625 0.546875
vt 0.578125 0.546875
vt 0.578125 0.640625
vt 0.5625 0.640625
vt 0.2578125 0.375
vt 0.25 0.375
vt 0.25 0.28125
vt 0.2578125 0.28125
vt 0.26185625 0.993475
vt 0.26939375 0.993475
vt 0.272096875 1
vt 0.259153125 1
vt 0.571653125 0.5
vt 0.584596875 0.5
vt 0.58189375 0.506525
vt 0.57435625 0.506525
vn 0.6408563820557885 0.29883623873011983 0.7071067811865477
vn -0.6408563820557885 -0.29883623873011983 -0.7071067811865477
vn 0.42261826174069944 -0.9063077870366499 0
vn -0.42261826174069944 0.9063077870366499 0
vn 0.9063077870366499 0.42261826174069944 0
vn -0.9063077870366499 -0.42261826174069944 0
vn 0.42261826174069944 -0.9063077870366499 0
vn -0.42261826174069944 0.9063077870366499 0
vn 0.6408563820557887 0.2988362387301199 -0.7071067811865474
vn -0.6408563820557885 -0.2988362387301199 0.7071067811865476
vn 0.42261826174069944 -0.9063077870366499 0
vn -0.42261826174069944 0.9063077870366499 0
vn 0 0 -1
vn -2.0855282685947666e-16 -9.724978029444747e-17 1
vn 0.42261826174069944 -0.9063077870366499 0
vn -0.42261826174069944 0.9063077870366499 0
vn -0.6408563820557884 -0.2988362387301198 -0.7071067811865478
vn 0.6408563820557884 0.2988362387301198 0.7071067811865478
vn 0.42261826174069944 -0.9063077870366499 0
vn -0.42261826174069944 0.9063077870366499 0
vn -0.9063077870366499 -0.42261826174069944 -2.6803154833089285e-16
vn 0.9063077870366499 0.42261826174069944 0
vn 0.42261826174069944 -0.9063077870366499 0
vn -0.42261826174069944 0.9063077870366499 0
vn -0.6408563820557887 -0.2988362387301199 0.7071067811865475
vn 0.6408563820557888 0.29883623873011994 -0.7071067811865474
vn 0.42261826174069944 -0.9063077870366499 0
vn -0.42261826174069944 0.9063077870366499 0
vn -1.214595397118892e-16 -5.663751352363512e-17 1
vn 2.0855282685947654e-16 9.72497802944474e-17 -1
vn 0.42261826174069944 -0.9063077870366499 0
vn -0.42261826174069944 0.9063077870366499 0
usemtl m_fbce4cc0-bda0-1368-efab-31a6bc1e7604
f 31/133/36 35/134/36 36/135/36 32/136/36
f 34/137/37 38/138/37 37/139/37 33/140/37
f 33/141/38 37/142/38 35/143/38 31/144/38
f 32/145/39 36/146/39 38/147/39 34/148/39
f 35/149/40 39/150/40 40/151/40 36/152/40
f 38/153/41 42/154/41 41/155/41 37/156/41
f 37/157/42 41/158/42 39/159/42 35/160/42
f 36/161/43 40/162/43 42/163/43 38/164/43
f 39/165/44 43/166/44 44/167/44 40/168/44
f 42/169/45 46/170/45 45/171/45 41/172/45
f 41/173/46 45/174/46 43/175/46 39/176/46
f 40/177/47 44/178/47 46/179/47 42/180/47
f 43/181/48 47/182/48 48/183/48 44/184/48
f 46/185/49 50/186/49 49/187/49 45/188/49
f 45/189/50 49/190/50 47/191/50 43/192/50
f 44/193/51 48/194/51 50/195/51 46/196/51
f 47/197/52 51/198/52 52/199/52 48/200/52
f 50/201/53 54/202/53 53/203/53 49/204/53
f 49/205/54 53/206/54 51/207/54 47/208/54
f 48/209/55 52/210/55 54/211/55 50/212/55
f 51/213/56 55/214/56 56/215/56 52/216/56
f 54/217/57 58/218/57 57/219/57 53/220/57
f 53/221/58 57/222/58 55/223/58 51/224/58
f 52/225/59 56/226/59 58/227/59 54/228/59
f 55/229/60 59/230/60 60/231/60 56/232/60
f 58/233/61 62/234/61 61/235/61 57/236/61
f 57/237/62 61/238/62 59/239/62 55/240/62
f 56/241/63 60/242/63 62/243/63 58/244/63
f 59/245/64 31/246/64 32/247/64 60/248/64
f 62/249/65 34/250/65 33/251/65 61/252/65
f 61/253/66 33/254/66 31/255/66 59/256/66
f 60/257/67 32/258/67 34/259/67 62/260/67
o cylinder
v 0.6875 0.6875 -2.0816681711721685e-17
v 0.6875 1.1875 -2.0816681711721685e-17
v 0.7133883476483185 0.6875 0.06249999999999997
v 0.7133883476483185 1.1875 0.06249999999999997
v 0.75 0.6875 0.025888347648318426
v 0.75 1.1875 0.025888347648318426
v 0.75 0.6875 -0.02588834764831846
v 0.75 1.1875 -0.02588834764831846
v 0.7133883476483185 0.6875 -0.06250000000000003
v 0.7133883476483185 1.1875 -0.06250000000000003
v 0.6616116523516816 0.6875 -0.06250000000000003
v 0.6616116523516816 1.1875 -0.06250000000000003
v 0.625 0.6875 -0.025888347648318502
v 0.625 1.1875 -0.025888347648318502
v 0.625 0.6875 0.025888347648318436
v 0.625 1.1875 0.025888347648318436
v 0.6616116523516815 0.6875 0.062499999999999965
v 0.6616116523516815 1.1875 0.062499999999999965
vt 0.5 0.82544375
vt 0.48169375000000003 0.84375
vt 0.46875 0.8125
vt 0 0.46875
vt 0.03125 0.46875
vt 0.03125 0.71875
vt 0 0.71875
vt 0.48169375000000003 0.6875
vt 0.5 0.70580625
vt 0.46875 0.71875
vt 0.5 0.79955625
vt 0.5 0.82544375
vt 0.46875 0.8125
vt 0 0.75
vt 0.03125 0.75
vt 0.03125 1
vt 0 1
vt 0.5 0.70580625
vt 0.5 0.73169375
vt 0.46875 0.71875
vt 0.48169375000000003 0.78125
vt 0.5 0.79955625
vt 0.46875 0.8125
vt 0.0625 0.46875
vt 0.09375 0.46875
vt 0.09375 0.71875
vt 0.0625 0.71875
vt 0.5 0.73169375
vt 0.48169375000000003 0.75
vt 0.46875 0.71875
vt 0.45580625 0.78125
vt 0.48169375000000003 0.78125
vt 0.46875 0.8125
vt 0.0625 0.75
vt 0.09375 0.75
vt 0.09375 1
vt 0.0625 1
vt 0.48169375000000003 0.75
vt 0.45580625 0.75
vt 0.46875 0.71875
vt 0.4375 0.79955625
vt 0.45580625 0.78125
vt 0.46875 0.8125
vt 0.125 0.46875
vt 0.15625 0.46875
vt 0.15625 0.71875
vt 0.125 0.71875
vt 0.45580625 0.75
vt 0.4375 0.73169375
vt 0.46875 0.71875
vt 0.4375 0.82544375
vt 0.4375 0.79955625
vt 0.46875 0.8125
vt 0.1875 0.75
vt 0.21875 0.75
vt 0.21875 1
vt 0.1875 1
vt 0.4375 0.73169375
vt 0.4375 0.70580625
vt 0.46875 0.71875
vt 0.45580625 0.84375
vt 0.4375 0.82544375
vt 0.46875 0.8125
vt 0.25 0.75
vt 0.28125 0.75
vt 0.28125 1
vt 0.25 1
vt 0.4375 0.70580625
vt 0.45580625 0.6875
vt 0.46875 0.71875
vt 0.48169375000000003 0.84375
vt 0.45580625 0.84375
vt 0.46875 0.8125
vt 0.125 0.75
vt 0.15625 0.75
vt 0.15625 1
vt 0.125 1
vt 0.45580625 0.6875
vt 0.48169375000000003 0.6875
vt 0.46875 0.71875
vn 0 -1 0
vn 0.7071067811865474 0 0.7071067811865477
vn 0 1 0
vn 0 -1 0
vn 1 0 0
vn 0 1 0
vn 0 -1 0
vn 0.7071067811865477 0 -0.7071067811865475
vn 0 1 0
vn 0 -1 0
vn 0 0 -1
vn 0 1 0
vn 0 -1 0
vn -0.7071067811865474 0 -0.7071067811865478
vn 0 1 0
vn 0 -1 0
vn -1 0 -2.680315483308929e-16
vn 0 1 0
vn 0 -1 0
vn -0.7071067811865477 0 0.7071067811865474
vn 0 1 0
vn 0 -1 0
vn -1.3401577416544645e-16 0 1
vn 0 1 0
usemtl m_9825c62f-bb15-01e7-66b6-a165f97920b5
f 67/261/68 65/262/68 63/263/68
f 65/264/69 67/265/69 68/266/69 66/267/69
f 66/268/70 68/269/70 64/270/70
f 69/271/71 67/272/71 63/273/71
f 67/274/72 69/275/72 70/276/72 68/277/72
f 68/278/73 70/279/73 64/280/73
f 71/281/74 69/282/74 63/283/74
f 69/284/75 71/285/75 72/286/75 70/287/75
f 70/288/76 72/289/76 64/290/76
f 73/291/77 71/292/77 63/293/77
f 71/294/78 73/295/78 74/296/78 72/297/78
f 72/298/79 74/299/79 64/300/79
f 75/301/80 73/302/80 63/303/80
f 73/304/81 75/305/81 76/306/81 74/307/81
f 74/308/82 76/309/82 64/310/82
f 77/311/83 75/312/83 63/313/83
f 75/314/84 77/315/84 78/316/84 76/317/84
f 76/318/85 78/319/85 64/320/85
f 79/321/86 77/322/86 63/323/86
f 77/324/87 79/325/87 80/326/87 78/327/87
f 78/328/88 80/329/88 64/330/88
f 65/331/89 79/332/89 63/333/89
f 79/334/90 65/335/90 66/336/90 80/337/90
f 80/338/91 66/339/91 64/340/91
o cylinder
v 0.6875 1.125 -2.0816681711721685e-17
v 0.4375 1.125 -2.0816681711721685e-17
v 0.6875 1.1508883476483185 0.06249999999999997
v 0.4375 1.1508883476483185 0.06249999999999997
v 0.6875 1.1875 0.025888347648318426
v 0.4375 1.1875 0.025888347648318426
v 0.6875 1.1875 -0.02588834764831846
v 0.4375 1.1875 -0.02588834764831846
v 0.6875 1.1508883476483185 -0.06250000000000003
v 0.4375 1.1508883476483185 -0.06250000000000003
v 0.6875 1.0991116523516815 -0.06250000000000003
v 0.4375 1.0991116523516817 -0.06250000000000003
v 0.6875 1.0625 -0.025888347648318502
v 0.4375 1.0625 -0.025888347648318502
v 0.6875 1.0625 0.025888347648318436
v 0.4375 1.0625 0.025888347648318436
v 0.6875 1.0991116523516815 0.062499999999999965
v 0.4375 1.0991116523516815 0.062499999999999965
vt 0.5 0.63794375
vt 0.48169375000000003 0.65625
vt 0.46875 0.625
vt 0.3125 0.34375
vt 0.34375 0.34375
vt 0.34375 0.46875
vt 0.3125 0.46875
vt 0.48169375000000003 0.5
vt 0.5 0.51830625
vt 0.46875 0.53125
vt 0.5 0.61205625
vt 0.5 0.63794375
vt 0.46875 0.625
vt 0.375 0.40625
vt 0.40625 0.40625
vt 0.40625 0.53125
vt 0.375 0.53125
vt 0.5 0.51830625
vt 0.5 0.54419375
vt 0.46875 0.53125
vt 0.48169375000000003 0.59375
vt 0.5 0.61205625
vt 0.46875 0.625
vt 0.53125 0.5625
vt 0.5625 0.5625
vt 0.5625 0.6875
vt 0.53125 0.6875
vt 0.5 0.54419375
vt 0.48169375000000003 0.5625
vt 0.46875 0.53125
vt 0.45580625 0.59375
vt 0.48169375000000003 0.59375
vt 0.46875 0.625
vt 0.5 0.875
vt 0.53125 0.875
vt 0.53125 1
vt 0.5 1
vt 0.48169375000000003 0.5625
vt 0.45580625 0.5625
vt 0.46875 0.53125
vt 0.4375 0.61205625
vt 0.45580625 0.59375
vt 0.46875 0.625
vt 0.4375 0.34375
vt 0.46875 0.34375
vt 0.46875 0.46875
vt 0.4375 0.46875
vt 0.45580625 0.5625
vt 0.4375 0.54419375
vt 0.46875 0.53125
vt 0.4375 0.63794375
vt 0.4375 0.61205625
vt 0.46875 0.625
vt 0.1875 0.34375
vt 0.21875 0.34375
vt 0.21875 0.46875
vt 0.1875 0.46875
vt 0.4375 0.54419375
vt 0.4375 0.51830625
vt 0.46875 0.53125
vt 0.45580625 0.65625
vt 0.4375 0.63794375
vt 0.46875 0.625
vt 0.25 0.34375
vt 0.28125 0.34375
vt 0.28125 0.46875
vt 0.25 0.46875
vt 0.4375 0.51830625
vt 0.45580625 0.5
vt 0.46875 0.53125
vt 0.48169375000000003 0.65625
vt 0.45580625 0.65625
vt 0.46875 0.625
vt 0.53125 0.71875
vt 0.5625 0.71875
vt 0.5625 0.84375
vt 0.53125 0.84375
vt 0.45580625 0.5
vt 0.48169375000000003 0.5
vt 0.46875 0.53125
vn 1 -2.220446049250313e-16 0
vn 1.5700924586837747e-16 0.7071067811865474 0.7071067811865477
vn -1 2.220446049250313e-16 0
vn 1 -2.220446049250313e-16 0
vn 2.220446049250313e-16 1 0
vn -1 2.220446049250313e-16 0
vn 1 -2.220446049250313e-16 0
vn 1.5700924586837754e-16 0.7071067811865477 -0.7071067811865475
vn -1 2.220446049250313e-16 0
vn 1 -2.220446049250313e-16 0
vn 0 0 -1
vn -1 2.220446049250313e-16 0
vn 1 -2.220446049250313e-16 0
vn -1.5700924586837747e-16 -0.7071067811865474 -0.7071067811865478
vn -1 2.220446049250313e-16 0
vn 1 -2.220446049250313e-16 0
vn -2.220446049250313e-16 -1 -2.680315483308929e-16
vn -1 2.220446049250313e-16 0
vn 1 -2.220446049250313e-16 0
vn -1.5700924586837754e-16 -0.7071067811865477 0.7071067811865474
vn -1 2.220446049250313e-16 0
vn 1 -2.220446049250313e-16 0
vn -2.9757479628288774e-32 -1.3401577416544645e-16 1
vn -1 2.220446049250313e-16 0
usemtl m_9825c62f-bb15-01e7-66b6-a165f97920b5
f 85/341/92 83/342/92 81/343/92
f 83/344/93 85/345/93 86/346/93 84/347/93
f 84/348/94 86/349/94 82/350/94
f 87/351/95 85/352/95 81/353/95
f 85/354/96 87/355/96 88/356/96 86/357/96
f 86/358/97 88/359/97 82/360/97
f 89/361/98 87/362/98 81/363/98
f 87/364/99 89/365/99 90/366/99 88/367/99
f 88/368/100 90/369/100 82/370/100
f 91/371/101 89/372/101 81/373/101
f 89/374/102 91/375/102 92/376/102 90/377/102
f 90/378/103 92/379/103 82/380/103
f 93/381/104 91/382/104 81/383/104
f 91/384/105 93/385/105 94/386/105 92/387/105
f 92/388/106 94/389/106 82/390/106
f 95/391/107 93/392/107 81/393/107
f 93/394/108 95/395/108 96/396/108 94/397/108
f 94/398/109 96/399/109 82/400/109
f 97/401/110 95/402/110 81/403/110
f 95/404/111 97/405/111 98/406/111 96/407/111
f 96/408/112 98/409/112 82/410/112
f 83/411/113 97/412/113 81/413/113
f 97/414/114 83/415/114 84/416/114 98/417/114
f 98/418/115 84/419/115 82/420/115
o cylinder
v 0.6875 0.75 -2.0816681711721685e-17
v 0.4375 0.7500000000000001 -2.0816681711721685e-17
v 0.6875 0.7758883476483185 0.06249999999999997
v 0.4375 0.7758883476483185 0.06249999999999997
v 0.6875 0.8125 0.025888347648318426
v 0.4375 0.8125000000000001 0.025888347648318426
v 0.6875 0.8125 -0.02588834764831846
v 0.4375 0.8125000000000001 -0.02588834764831846
v 0.6875 0.7758883476483185 -0.06250000000000003
v 0.4375 0.7758883476483185 -0.06250000000000003
v 0.6875 0.7241116523516816 -0.06250000000000003
v 0.4375 0.7241116523516816 -0.06250000000000003
v 0.6875 0.6875 -0.025888347648318502
v 0.4375 0.6875000000000001 -0.025888347648318502
v 0.6875 0.6875 0.025888347648318436
v 0.4375 0.6875000000000001 0.025888347648318436
v 0.6875 0.7241116523516815 0.062499999999999965
v 0.4375 0.7241116523516816 0.062499999999999965
vt 0.25 0.70044375
vt 0.23169375 0.71875
vt 0.21875 0.6875
vt 0.3125 0.5
vt 0.34375 0.5
vt 0.34375 0.625
vt 0.3125 0.625
vt 0.32544375000000003 0.65625
vt 0.34375 0.67455625
vt 0.3125 0.6875
vt 0.25 0.67455625
vt 0.25 0.70044375
vt 0.21875 0.6875
vt 0.3125 0.875
vt 0.34375 0.875
vt 0.34375 1
vt 0.3125 1
vt 0.34375 0.67455625
vt 0.34375 0.70044375
vt 0.3125 0.6875
vt 0.23169375 0.65625
vt 0.25 0.67455625
vt 0.21875 0.6875
vt 0.375 0.5625
vt 0.40625 0.5625
vt 0.40625 0.6875
vt 0.375 0.6875
vt 0.34375 0.70044375
vt 0.32544375000000003 0.71875
vt 0.3125 0.6875
vt 0.20580625 0.65625
vt 0.23169375 0.65625
vt 0.21875 0.6875
vt 0.375 0.875
vt 0.40625 0.875
vt 0.40625 1
vt 0.375 1
vt 0.32544375000000003 0.71875
vt 0.29955625 0.71875
vt 0.3125 0.6875
vt 0.1875 0.67455625
vt 0.20580625 0.65625
vt 0.21875 0.6875
vt 0.4375 0.875
vt 0.46875 0.875
vt 0.46875 1
vt 0.4375 1
vt 0.29955625 0.71875
vt 0.28125 0.70044375
vt 0.3125 0.6875
vt 0.1875 0.70044375
vt 0.1875 0.67455625
vt 0.21875 0.6875
vt 0.1875 0.5
vt 0.21875 0.5
vt 0.21875 0.625
vt 0.1875 0.625
vt 0.28125 0.70044375
vt 0.28125 0.67455625
vt 0.3125 0.6875
vt 0.20580625 0.71875
vt 0.1875 0.70044375
vt 0.21875 0.6875
vt 0.25 0.5
vt 0.28125 0.5
vt 0.28125 0.625
vt 0.25 0.625
vt 0.28125 0.67455625
vt 0.29955625 0.65625
vt 0.3125 0.6875
vt 0.23169375 0.71875
vt 0.20580625 0.71875
vt 0.21875 0.6875
vt 0.375 0.71875
vt 0.40625 0.71875
vt 0.40625 0.84375
vt 0.375 0.84375
vt 0.29955625 0.65625
vt 0.32544375000000003 0.65625
vt 0.3125 0.6875
vn 1 -2.220446049250313e-16 0
vn 1.5700924586837747e-16 0.7071067811865474 0.7071067811865477
vn -1 2.220446049250313e-16 0
vn 1 -2.220446049250313e-16 0
vn 2.220446049250313e-16 1 0
vn -1 2.220446049250313e-16 0
vn 1 -2.220446049250313e-16 0
vn 1.5700924586837754e-16 0.7071067811865477 -0.7071067811865475
vn -1 2.220446049250313e-16 0
vn 1 -2.220446049250313e-16 0
vn 0 0 -1
vn -1 2.220446049250313e-16 0
vn 1 -2.220446049250313e-16 0
vn -1.5700924586837747e-16 -0.7071067811865474 -0.7071067811865478
vn -1 2.220446049250313e-16 0
vn 1 -2.220446049250313e-16 0
vn -2.220446049250313e-16 -1 -2.680315483308929e-16
vn -1 2.220446049250313e-16 0
vn 1 -2.220446049250313e-16 0
vn -1.5700924586837754e-16 -0.7071067811865477 0.7071067811865474
vn -1 2.220446049250313e-16 0
vn 1 -2.220446049250313e-16 0
vn -2.9757479628288774e-32 -1.3401577416544645e-16 1
vn -1 2.220446049250313e-16 0
usemtl m_9825c62f-bb15-01e7-66b6-a165f97920b5
f 103/421/116 101/422/116 99/423/116
f 101/424/117 103/425/117 104/426/117 102/427/117
f 102/428/118 104/429/118 100/430/118
f 105/431/119 103/432/119 99/433/119
f 103/434/120 105/435/120 106/436/120 104/437/120
f 104/438/121 106/439/121 100/440/121
f 107/441/122 105/442/122 99/443/122
f 105/444/123 107/445/123 108/446/123 106/447/123
f 106/448/124 108/449/124 100/450/124
f 109/451/125 107/452/125 99/453/125
f 107/454/126 109/455/126 110/456/126 108/457/126
f 108/458/127 110/459/127 100/460/127
f 111/461/128 109/462/128 99/463/128
f 109/464/129 111/465/129 112/466/129 110/467/129
f 110/468/130 112/469/130 100/470/130
f 113/471/131 111/472/131 99/473/131
f 111/474/132 113/475/132 114/476/132 112/477/132
f 112/478/133 114/479/133 100/480/133
f 115/481/134 113/482/134 99/483/134
f 113/484/135 115/485/135 116/486/135 114/487/135
f 114/488/136 116/489/136 100/490/136
f 101/491/137 115/492/137 99/493/137
f 115/494/138 101/495/138 102/496/138 116/497/138
f 116/498/139 102/499/139 100/500/139