# Made in Blockbench 5.2.0
mtllib materials.mtl

o cylinder
v -4.625929269271485e-18 0.125 -4.625929269271485e-18
v -4.625929269271485e-18 1.4375 -4.625929269271485e-18
v 0.06698729810778065 0 0.25
v 0.06698729810778065 1.125 0.25
v 0.18301270189221924 0 0.18301270189221933
v 0.18301270189221924 1.125 0.18301270189221933
v 0.25 0 0.06698729810778065
v 0.25 1.125 0.06698729810778065
v 0.25 0 -0.06698729810778069
v 0.25 1.125 -0.06698729810778069
v 0.18301270189221933 0 -0.18301270189221933
v 0.18301270189221933 1.125 -0.18301270189221933
v 0.06698729810778073 0 -0.24999999999999992
v 0.06698729810778073 1.125 -0.24999999999999992
v -0.06698729810778056 0 -0.25
v -0.06698729810778056 1.125 -0.25
v -0.18301270189221933 0 -0.18301270189221933
v -0.18301270189221933 1.125 -0.18301270189221933
v -0.24999999999999992 0 -0.06698729810778063
v -0.24999999999999992 1.125 -0.06698729810778063
v -0.25 0 0.06698729810778054
v -0.25 1.125 0.06698729810778054
v -0.18301270189221933 0 0.18301270189221924
v -0.18301270189221933 1.125 0.18301270189221924
v -0.06698729810778065 0 0.25
v -0.06698729810778065 1.125 0.25
vt 0.4065228944531201 0.9370571111198394
vt 0.436378125 0.921875
vt 0.453125 0.991753125
vt 0.196434375 0.71875
vt 0.229928125 0.71875
vt 0.229928125 1
vt 0.196434375 1
vt 0.415184375 0.5405765625
vt 0.4468523816798523 0.5514838372277827
vt 0.3984375 0.640625
vt 0.38679269723864884 0.9641227832330638
vt 0.4065228944531201 0.9370571111198394
vt 0.453125 0.991753125
vt 0.004446874999999996 0.71875
vt 0.037940625 0.71875
vt 0.037940625 1
vt 0.004446874999999996 1
vt 0.4125226183201477 0.6921088372277827
vt 0.444190625 0.6812015625
vt 0.4609375 0.78125
vt 0.3814742260308165 0.9971915774819317
vt 0.38679269723864884 0.9641227832330638
vt 0.453125 0.991753125
vt 0.037940625 0.71875
vt 0.071434375 0.71875
vt 0.071434375 1
vt 0.037940625 1
vt 0.444190625 0.6812015625
vt 0.477684375 0.6812015625
vt 0.4609375 0.78125
vt 0.5700396055468799 0.5933071111198394
vt 0.5897698027613512 0.6203727832330638
vt 0.5234375 0.648003125
vt 0.071434375 0.71875
vt 0.10492812500000001 0.71875
vt 0.10492812500000001 1
vt 0.071434375 1
vt 0.477684375 0.6812015625
vt 0.5093523816798523 0.6921088372277827
vt 0.4609375 0.78125
vt 0.5401843749999999 0.578125
vt 0.5700396055468798 0.5933071111198394
vt 0.5234375 0.648003125
vt 0.004446874999999996 0.421875
vt 0.037940625 0.421875
vt 0.037940625 0.703125
vt 0.004446874999999996 0.703125
vt 0.3812726183201477 0.8171088372277827
vt 0.412940625 0.8062015625
vt 0.4296875 0.90625
vt 0.506690625 0.578125
vt 0.5401843749999999 0.578125
vt 0.5234375 0.648003125
vt 0.037940625 0.421875
vt 0.071434375 0.421875
vt 0.071434375 0.703125
vt 0.037940625 0.703125
vt 0.412940625 0.8062015625
vt 0.446434375 0.8062015625
vt 0.4296875 0.90625
vt 0.4768353944531201 0.5933071111198394
vt 0.506690625 0.578125
vt 0.5234375 0.648003125
vt 0.071434375 0.421875
vt 0.10492812500000001 0.421875
vt 0.10492812500000001 0.703125
vt 0.071434375 0.703125
vt 0.446434375 0.8062015625
vt 0.4781023816798523 0.8171088372277827
vt 0.4296875 0.90625
vt 0.45710519723864884 0.6203727832330638
vt 0.4768353944531201 0.5933071111198394
vt 0.5234375 0.648003125
vt 0.254446875 0.71875
vt 0.287940625 0.71875
vt 0.287940625 1
vt 0.254446875 1
vt 0.16252261832014767 0.4889838372277827
vt 0.194190625 0.47807656249999997
vt 0.2109375 0.578125
vt 0.5194573027613512 0.9641227832330638
vt 0.5247757739691835 0.9971915774819317
vt 0.453125 0.991753125
vt 0.287940625 0.71875
vt 0.321434375 0.71875
vt 0.321434375 1
vt 0.287940625 1
vt 0.194190625 0.47807656249999997
vt 0.227684375 0.47807656249999997
vt 0.2109375 0.578125
vt 0.4997271055468799 0.9370571111198394
vt 0.5194573027613512 0.9641227832330638
vt 0.453125 0.991753125
vt 0.321434375 0.71875
vt 0.35492812500000004 0.71875
vt 0.35492812500000004 1
vt 0.321434375 1
vt 0.227684375 0.47807656249999997
vt 0.2593523816798523 0.4889838372277827
vt 0.2109375 0.578125
vt 0.469871875 0.921875
vt 0.4997271055468799 0.9370571111198394
vt 0.453125 0.991753125
vt 0.129446875 0.71875
vt 0.162940625 0.71875
vt 0.162940625 1
vt 0.129446875 1
vt 0.3500226183201477 0.5514838372277827
vt 0.381690625 0.5405765625
vt 0.3984375 0.640625
vt 0.436378125 0.921875
vt 0.469871875 0.921875
vt 0.453125 0.991753125
vt 0.162940625 0.71875
vt 0.196434375 0.71875
vt 0.196434375 1
vt 0.162940625 1
vt 0.381690625 0.5405765625
vt 0.415184375 0.5405765625
vt 0.3984375 0.640625
vn -0.22360679774997905 -0.8944271909999159 -0.3872983346207417
vn 0.5000000000000002 0 0.8660254037844386
vn 0.3904344047215153 0.6246950475544242 0.6762522260005742
vn -0.3872983346207417 -0.894427190999916 -0.22360679774997916
vn 0.8660254037844386 0 0.5000000000000004
vn 0.6762522260005741 0.6246950475544242 0.3904344047215154
vn -0.44721359549995804 -0.8944271909999161 0
vn 1 0 0
vn 0.7808688094430304 0.6246950475544242 0
vn -0.3872983346207417 -0.8944271909999159 0.22360679774997896
vn 0.8660254037844388 0 -0.5000000000000001
vn 0.6762522260005742 0.6246950475544243 -0.3904344047215153
vn -0.22360679774997888 -0.8944271909999161 0.38729833462074187
vn 0.4999999999999997 0 -0.8660254037844389
vn 0.390434404721515 0.6246950475544242 -0.6762522260005744
vn -2.779483077433143e-16 -0.8944271909999159 0.447213595499958
vn 6.215113103450819e-16 0 -1
vn 4.853187969645418e-16 0.6246950475544242 -0.7808688094430304
vn 0.22360679774997885 -0.894427190999916 0.3872983346207419
vn -0.4999999999999996 0 -0.8660254037844389
vn -0.3904344047215149 0.6246950475544242 -0.6762522260005746
vn 0.3872983346207419 -0.8944271909999159 0.22360679774997874
vn -0.866025403784439 0 -0.49999999999999933
vn -0.6762522260005746 0.6246950475544243 -0.39043440472151475
vn 0.4472135954999581 -0.894427190999916 2.7794830774331455e-16
vn -1 0 -6.215113103450823e-16
vn -0.7808688094430304 0.6246950475544242 -4.853187969645422e-16
vn 0.38729833462074187 -0.894427190999916 -0.22360679774997894
vn -0.8660254037844388 0 0.49999999999999983
vn -0.6762522260005744 0.6246950475544242 0.39043440472151514
vn 0.22360679774997916 -0.894427190999916 -0.3872983346207417
vn -0.5000000000000004 0 0.8660254037844386
vn -0.39043440472151547 0.6246950475544243 0.6762522260005741
vn 0 -0.8944271909999161 -0.44721359549995804
vn 0 0 1
vn 0 0.6246950475544243 0.7808688094430304
usemtl m_f1b88c39-4d14-42b3-01c8-cfabfe17298f
f 5/1/1 3/2/1 1/3/1
f 3/4/2 5/5/2 6/6/2 4/7/2
f 4/8/3 6/9/3 2/10/3
f 7/11/4 5/12/4 1/13/4
f 5/14/5 7/15/5 8/16/5 6/17/5
f 6/18/6 8/19/6 2/20/6
f 9/21/7 7/22/7 1/23/7
f 7/24/8 9/25/8 10/26/8 8/27/8
f 8/28/9 10/29/9 2/30/9
f 11/31/10 9/32/10 1/33/10
f 9/34/11 11/35/11 12/36/11 10/37/11
f 10/38/12 12/39/12 2/40/12
f 13/41/13 11/42/13 1/43/13
f 11/44/14 13/45/14 14/46/14 12/47/14
f 12/48/15 14/49/15 2/50/15
f 15/51/16 13/52/16 1/53/16
f 13/54/17 15/55/17 16/56/17 14/57/17
f 14/58/18 16/59/18 2/60/18
f 17/61/19 15/62/19 1/63/19
f 15/64/20 17/65/20 18/66/20 16/67/20
f 16/68/21 18/69/21 2/70/21
f 19/71/22 17/72/22 1/73/22
f 17/74/23 19/75/23 20/76/23 18/77/23
f 18/78/24 20/79/24 2/80/24
f 21/81/25 19/82/25 1/83/25
f 19/84/26 21/85/26 22/86/26 20/87/26
f 20/88/27 22/89/27 2/90/27
f 23/91/28 21/92/28 1/93/28
f 21/94/29 23/95/29 24/96/29 22/97/29
f 22/98/30 24/99/30 2/100/30
f 25/101/31 23/102/31 1/103/31
f 23/104/32 25/105/32 26/106/32 24/107/32
f 24/108/33 26/109/33 2/110/33
f 3/111/34 25/112/34 1/113/34
f 25/114/35 3/115/35 4/116/35 26/117/35
f 26/118/36 4/119/36 2/120/36
o plane
v -0.5625 0.0625 -6.285787508925029e-16
v -0.0625 0.6875 6.285787508925029e-16
v -0.0625 0.0625 -6.898110908498705e-16
vt 0.390625 0.703125
vt 0.265625 0.703125
vt 0.265625 0.546875
vn 1.2246467991473535e-16 -2.1094237467877974e-15 1
usemtl m_f1b88c39-4d14-42b3-01c8-cfabfe17298f
f 27/121/37 29/122/37 28/123/37
o plane
v 0.5625 0.0625 -6.938893903907228e-17
v 0.0625 0.6875 6.938893903907228e-17
v 0.0625 0.0625 -6.938893903907228e-17
vt 0.25 0.703125
vt 0.125 0.703125
vt 0.125 0.546875
vn 2.7369110631344083e-48 2.220446049250313e-16 -1
usemtl m_f1b88c39-4d14-42b3-01c8-cfabfe17298f
f 30/124/38 32/125/38 31/126/38