# Made in Blockbench 5.1.6
mtllib materials.mtl

o cylinder
v 0 0.875 0
v 0 2.9375 0
v 0.13397459621556132 0.6875 0.49999999999999994
v 0.13397459621556132 2.4375 0.49999999999999994
v 0.3660254037844386 0.6875 0.36602540378443865
v 0.3660254037844386 2.4375 0.36602540378443865
v 0.49999999999999994 0.6875 0.13397459621556132
v 0.49999999999999994 2.4375 0.13397459621556132
v 0.49999999999999994 0.6875 -0.13397459621556138
v 0.49999999999999994 2.4375 -0.13397459621556138
v 0.36602540378443865 0.6875 -0.3660254037844386
v 0.36602540378443865 2.4375 -0.3660254037844386
v 0.1339745962155615 0.6875 -0.4999999999999999
v 0.1339745962155615 2.4375 -0.4999999999999999
v -0.13397459621556113 0.6875 -0.5
v -0.13397459621556113 2.4375 -0.5
v -0.3660254037844386 0.6875 -0.3660254037844387
v -0.3660254037844386 2.4375 -0.3660254037844387
v -0.49999999999999994 0.6875 -0.13397459621556126
v -0.49999999999999994 2.4375 -0.13397459621556126
v -0.5 0.6875 0.1339745962155611
v -0.5 2.4375 0.1339745962155611
v -0.3660254037844387 0.6875 0.36602540378443854
v -0.3660254037844387 2.4375 0.36602540378443854
v -0.1339745962155613 0.6875 0.49999999999999994
v -0.1339745962155613 2.4375 0.49999999999999994
v 0.09959959621556473 1.2937500000000002 0.49999999999999994
v -0.09959959621556473 1.3000000000000003 0.49999999999999994
v -0.42852540378443704 1.3125 0.36602540378443854
v -0.5 1.3125 0.1339745962155611
v -0.49999999999999994 1.3125 -0.13397459621556126
v -0.3660254037844386 1.3125 -0.3660254037844387
v -0.13397459621556113 1.3125 -0.5
v 0.1339745962155615 1.3125 -0.4999999999999999
v 0.36602540378443865 1.3125 -0.3660254037844386
v 0.49999999999999994 1.3125 -0.13397459621556138
v 0.49999999999999994 1.3125 0.13397459621556132
v 0.4285254037844385 1.3125 0.36602540378443865
v 0.11834959621555996 1.875 0.49999999999999994
v -0.4285254037844392 1.9375 0.36602540378443854
v -0.5 1.9375 0.1339745962155611
v -0.5 1.9375 -0.13397459621556126
v -0.3660254037844384 1.9375 -0.3660254037844387
v -0.13397459621556074 1.9375 -0.5
v 0.13397459621556163 1.9375 -0.4999999999999999
v 0.3660254037844384 1.9375 -0.3660254037844386
v 0.5 1.9375 -0.13397459621556138
v 0.5 1.9375 0.13397459621556132
v 0.42852540378443765 1.9375 0.36602540378443865
v 0.25897459621555996 1.9375 0.24999999999999994
v -0.25897459621555996 1.9375 0.24999999999999994
v -0.2589745962155648 1.3125 0.24999999999999994
v -0.25897459621555996 1.9375 0.24999999999999994
v -0.2589745962155648 1.3125 0.24999999999999994
v 0.2589745962155648 1.3125 0.24999999999999994
v 0.25897459621555996 1.9375 0.24999999999999994
v 0.2589745962155648 1.3125 0.24999999999999994
v -0.2589745962155648 1.9375 0.24999999999999994
v 0.2589745962155648 1.9375 0.24999999999999994
v 0.5 0.6875 -0.13397459621556138
v 0.5 0.6875 0.13397459621556132
v 0.3972754037844386 0.6875 0.36602540378443865
v 0.19647459621556307 0.6875 0.49999999999999994
v -0.19647459621556304 0.6875 0.49999999999999994
v -0.3972754037844378 0.6875 0.36602540378443854
v -0.5 0.6875 0.1339745962155611
v -0.4999999999999999 0.6875 -0.13397459621556126
v -0.3660254037844386 0.6875 -0.3660254037844387
v -0.13397459621556113 0.6875 -0.5
v 0.1339745962155615 0.6875 -0.4999999999999999
v 0.3660254037844387 0.6875 -0.3660254037844386
v -0.2745995962155624 1.703125 0.5
v -0.42852540378443815 1.625 0.36602540378443854
v -0.5 1.625 0.1339745962155611
v -0.5 1.625 -0.13397459621556126
v -0.3660254037844385 1.625 -0.3660254037844387
v -0.13397459621556093 1.625 -0.5
v 0.13397459621556157 1.625 -0.4999999999999999
v 0.3660254037844385 1.625 -0.3660254037844386
v 0.5 1.625 -0.13397459621556138
v 0.5 1.625 0.13397459621556132
v 0.42852540378443804 1.625 0.36602540378443865
v 0.2745995962155624 1.703125 0.49999999999999994
v 0.2589745962155624 1.625 0.24999999999999994
v -0.2589745962155624 1.625 0.24999999999999994
v -0.2824120962155636 1.484375 0.49999999999999994
v -0.2589745962155636 1.46875 0.24999999999999994
v -0.4285254037844376 1.46875 0.36602540378443854
v -0.5 1.46875 0.1339745962155611
v -0.5 1.46875 -0.13397459621556126
v -0.36602540378443854 1.46875 -0.3660254037844387
v -0.13397459621556101 1.46875 -0.5
v 0.13397459621556151 1.46875 -0.4999999999999999
v 0.3660254037844386 1.46875 -0.3660254037844386
v 0.5 1.46875 -0.13397459621556138
v 0.5 1.46875 0.13397459621556132
v 0.42852540378443826 1.46875 0.36602540378443865
v 0.27459959621556357 1.5 0.49999999999999994
v 0.2589745962155636 1.46875 0.24999999999999994
v -0.11834959621555996 1.875 0.49999999999999994
vt 0.4296653429861645 0.7740715727826422
vt 0.39964814737833204 0.788930888275074
vt 0.38504347974855313 0.7216796875
vt 0.5704837256376625 0.5464162373905761
vt 0.5001445038317057 0.5464162373905761
vt 0.5090300989679749 0.50439453125
vt 0.5712890625 0.5131486131985936
vt 0.253319140625 0.6850492187499999
vt 0.2844914655008687 0.6973014614384142
vt 0.236572265625 0.7734375
vt 0.449112862167382 0.746802079080729
vt 0.4296653429861645 0.7740715727826422
vt 0.3850434797485531 0.7216796875
vt 0.10960468749999999 1
vt 0.11190468749999999 0.9370562499999999
vt 0.14225546875 0.9370562499999999
vt 0.14225546875 0.9991148437499999
vt 0.2844914655008687 0.6973014614384142
vt 0.30902130725555127 0.72010756045935
vt 0.23657226562500006 0.7734375
vt 0.254322265625 0.5924828125
vt 0.254322265625 0.6259765625
vt 0.187572265625 0.6092296875000001
vt 0.14225546875 0.9995562499999999
vt 0.14225546875 0.9370562499999999
vt 0.17574921875 0.9370562499999999
vt 0.17574921875 0.9995562499999999
vt 0.5001474241703364 0.4084618085313241
vt 0.5330557008296636 0.40222669695448066
vt 0.5330557008296635 0.4921875
vt 0.11452774995830425 0.6808502781303205
vt 0.13309366776820955 0.7087274728410216
vt 0.06825399314945066 0.7317890625
vt 0.17574921875 0.9995562499999999
vt 0.17574921875 0.9370562499999999
vt 0.20924296875 0.9370562499999999
vt 0.20924296875 0.9995562499999999
vt 0.28131072399444873 0.66542006045935
vt 0.3058405657491313 0.6426139614384142
vt 0.35375976562499994 0.71875
vt 0.08500086814945065 0.6650390625
vt 0.11452774995830424 0.6808502781303205
vt 0.06825399314945066 0.7317890625
vt 0.00005234374999999597 1
vt 0.00005234374999999597 0.9375
vt 0.03354609375 0.9375
vt 0.03354609375 1
vt 0.3058405657491313 0.6426139614384142
vt 0.337012890625 0.6303617187499999
vt 0.353759765625 0.71875
vt 0.05150711814945066 0.6650390625
vt 0.08500086814945065 0.6650390625
vt 0.06825399314945066 0.7317890625
vt 0.03354609375 1
vt 0.03354609375 0.9375
vt 0.06703984375 0.9375
vt 0.06703984375 1
vt 0.337012890625 0.6303617187499999
vt 0.370506640625 0.6303617187499999
vt 0.353759765625 0.71875
vt 0.02198023634059708 0.6808502781303205
vt 0.05150711814945066 0.6650390625
vt 0.06825399314945066 0.7317890625
vt 0.06703984375 1
vt 0.06703984375 0.9375
vt 0.10053359375000001 0.9375
vt 0.10053359375000001 1
vt 0.370506640625 0.6303617187499999
vt 0.4016789655008687 0.6426139614384142
vt 0.353759765625 0.71875
vt 0.003414318530691768 0.7087274728410216
vt 0.02198023634059707 0.6808502781303205
vt 0.06825399314945066 0.7317890625
vt 0.2189796875 1
vt 0.2189796875 0.9375
vt 0.2524734375 0.9375
vt 0.2524734375 1
vt 0.4016789655008687 0.6426139614384142
vt 0.42620880725555127 0.66542006045935
vt 0.35375976562500006 0.71875
vt 0.00020711348179046352 0.7420673157446227
vt 0.003414318530691768 0.7087274728410216
vt 0.06825399314945066 0.7317890625
vt 0.14858492417033645 0.4006493085313241
vt 0.18149320082966355 0.39441419695448066
vt 0.18149320082966353 0.484375
vt 0.013118318730954266 0.7729725267627741
vt 0.00020711348179044964 0.7420673157446227
vt 0.06825399314945066 0.7317890625
vt 0.2859671875 1
vt 0.2859671875 0.9375
vt 0.31631796875 0.9375
vt 0.31861796875000004 1
vt 0.16412322399444873 0.72010756045935
vt 0.18865306574913132 0.6973014614384142
vt 0.23657226562499994 0.7734375
vt 0.366171512832618 0.7878602676348816
vt 0.33716512155695827 0.7711133110688116
vt 0.3850434797485531 0.7216796875
vt 0.13957528343098616 0.6875
vt 0.13237528343098617 0.6249265625
vt 0.17460809593098617 0.6171046875
vt 0.17280809593098617 0.6872984375
vt 0.18865306574913132 0.6973014614384142
vt 0.219825390625 0.6850492187499999
vt 0.236572265625 0.7734375
vt 0.39964814737833204 0.788930888275074
vt 0.366171512832618 0.7878602676348816
vt 0.3850434797485531 0.7216796875
vt 0.00009882812499999866 1
vt 0.007911328124999999 1
vt 0.049217578125 1
vt 0.041405078125 1
vt 0.219825390625 0.6850492187499999
vt 0.253319140625 0.6850492187499999
vt 0.236572265625 0.7734375
vt 0.2524734375 1
vt 0.2524734375 0.9375
vt 0.2859671875 0.9375
vt 0.2859671875 1
vt 0.13436597528668043 0.5495492594618275
vt 0.125 0.4718898034526763
vt 0.1547812096317709 0.4670356268962078
vt 0.17700472115564908 0.540767704459127
vt 0.286178125 0.859375
vt 0.286178125 0.78125
vt 0.31789921875 0.78125
vt 0.31631796875 0.859375
vt 0.2524734375 0.859375
vt 0.2524734375 0.78125
vt 0.2859671875 0.78125
vt 0.2859671875 0.859375
vt 0.2189796875 0.859375
vt 0.2189796875 0.78125
vt 0.2524734375 0.78125
vt 0.2524734375 0.859375
vt 0.06703984375 0.859375
vt 0.06703984375 0.78125
vt 0.10053359375000001 0.78125
vt 0.10053359375000001 0.859375
vt 0.03354609375 0.859375
vt 0.03354609375 0.78125
vt 0.06703984375 0.78125
vt 0.06703984375 0.859375
vt 0.00005234374999999597 0.859375
vt 0.00005234374999999597 0.78125
vt 0.03354609375 0.78125
vt 0.03354609375 0.859375
vt 0.17574921875 0.8589312499999999
vt 0.17574921875 0.7808062499999999
vt 0.20924296875 0.7808062499999999
vt 0.20924296875 0.8589312499999999
vt 0.14225546875 0.8589312499999999
vt 0.14225546875 0.7808062499999999
vt 0.17574921875 0.7808062499999999
vt 0.17574921875 0.8589312499999999
vt 0.11211518271882545 0.8589312499999999
vt 0.11095763278475007 0.7807168001416068
vt 0.14267826105666578 0.7808886452207646
vt 0.14225546875 0.8589312499999999
vt 9.383988032740653e-7 0.511247365904882
vt 0.01160307071469642 0.4353866454637244
vt 0.04177117490364952 0.43599407185212224
vt 0.04345703125 0.513671875
vt 0.19541778537413151 0.484375
vt 0.19541778537413151 0.414035378494652
vt 0.2249938770451938 0.41321382039267796
vt 0.22889862087586849 0.48344497679161846
vt 0.13430158018447047 0.6245697960066802
vt 0.13463851896765963 0.5855087491888287
vt 0.16006192906485572 0.5954940386574897
vt 0.17460809593098617 0.6171046875
vt 0.2859671875 0.9375
vt 0.2859671875 0.8984375
vt 0.31631796875 0.8984375
vt 0.31631796875 0.9375
vt 0.2524734375 0.9375
vt 0.2524734375 0.8984375
vt 0.2859671875 0.8984375
vt 0.2859671875 0.9375
vt 0.2189796875 0.9375
vt 0.2189796875 0.8984375
vt 0.2524734375 0.8984375
vt 0.2524734375 0.9375
vt 0.06703984375 0.9375
vt 0.06703984375 0.8984375
vt 0.10053359375000001 0.8984375
vt 0.10053359375000001 0.9375
vt 0.03354609375 0.9375
vt 0.03354609375 0.8984375
vt 0.06703984375 0.8984375
vt 0.06703984375 0.9375
vt 0.00005234374999999597 0.9375
vt 0.00005234374999999597 0.8984375
vt 0.03354609375 0.8984375
vt 0.03354609375 0.9375
vt 0.17574921875 0.9370562499999999
vt 0.17574921875 0.8979937499999999
vt 0.20924296875 0.8979937499999999
vt 0.20924296875 0.9370562499999999
vt 0.14225546875 0.9370562499999999
vt 0.14225546875 0.8979937499999999
vt 0.17574921875 0.8979937499999999
vt 0.17574921875 0.9370562499999999
vt 0.11190468749999999 0.9370562499999999
vt 0.11190468749999999 0.8979937499999999
vt 0.14225546875 0.8979937499999999
vt 0.14225546875 0.9370562499999999
vt 0.34228515625 0.4296875
vt 0.31861282360899446 0.41317360673079695
vt 0.3125 0.3865528263754162
vt 0.34228515625 0.3939943458773857
vt 0.586326953125 0.9677734375
vt 0.6039050781249999 1
vt 0.539161328125 1
vt 0.556739453125 0.9677734375
vt 0.5550414324977886 0.671875
vt 0.5550387994838105 0.6523437501774787
vt 0.58642578125 0.654292643906268
vt 0.5863388424703929 0.6816364058749826
vt 0.591795703125 0.72611328125
vt 0.6117175781249999 0.7574023437499999
vt 0.546973828125 0.7574023437499999
vt 0.566895703125 0.72607421875
vt 0.5703125 0.953125
vt 0.5703125 0.927734375
vt 0.6016234375 0.923828125
vt 0.6016234375 0.943359375
vt 0.50244140625 0.6484375
vt 0.50244140625 0.7265625
vt 0.4375 0.7265625
vt 0.4375 0.6484375
vt 0.254322265625 0.5924828125
vt 0.254322265625 0.5924828125
vt 0.254322265625 0.6259765625
vt 0.254322265625 0.6259765625
vt 0.254322265625 0.6259765625
vt 0.254322265625 0.6259765625
vt 0.241481640625 0.6549828125
vt 0.237575390625 0.6549828125
vt 0.237575390625 0.6549828125
vt 0.241481640625 0.6549828125
vt 0.216381640625 0.6717296875000001
vt 0.208569140625 0.6717296875000001
vt 0.3362993459896402 0.5234375
vt 0.3125 0.45047842965971596
vt 0.36083984375 0.44280503232094337
vt 0.36083984375 0.5203192463022553
vt 0.366171512832618 0.7878602676348816
vt 0.358359012832618 0.7878602676348816
vt 0.333259012832618 0.7711133926348815
vt 0.337165262832618 0.7711133926348815
vt 0.337165262832618 0.7711133926348815
vt 0.333259012832618 0.7711133926348815
vt 0.320418387832618 0.7421071426348815
vt 0.320418387832618 0.7421071426348815
vt 0 0.96630859375
vt 0 0.96630859375
vt 0 1
vt 0 1
vt 0 1
vt 0 1
vt 0.03369140625 1
vt 0.03369140625 1
vt 0 1
vt 0 1
vt 0.03369140625 1
vt 0.03369140625 1
vt 0 1
vt 0 1
vt 0.03369140625 1
vt 0.03369140625 1
vt 0 1
vt 0 1
vt 0 0.96630859375
vt 0 0.96630859375
vt 0.237575390625 0.5634765625
vt 0.237575390625 0.5634765625
vt 0.254322265625 0.5924828125
vt 0.254322265625 0.5924828125
vt 0.17700472115564908 0.540767704459127
vt 0.15957398189842664 0.5681451088549351
vt 0.13481226076689787 0.5659811408734915
vt 0.13471427886381443 0.5494775254800253
vt 0.31631796875 0.859375
vt 0.31631796875 0.87890625
vt 0.2859671875 0.87890625
vt 0.2859671875 0.859375
vt 0.2859671875 0.859375
vt 0.2859671875 0.87890625
vt 0.2524734375 0.87890625
vt 0.2524734375 0.859375
vt 0.2524734375 0.859375
vt 0.2524734375 0.87890625
vt 0.2189796875 0.87890625
vt 0.2189796875 0.859375
vt 0.10053359375000001 0.859375
vt 0.10053359375000001 0.87890625
vt 0.06703984375 0.87890625
vt 0.06703984375 0.859375
vt 0.06703984375 0.859375
vt 0.06703984375 0.87890625
vt 0.03354609375 0.87890625
vt 0.03354609375 0.859375
vt 0.03354609375 0.859375
vt 0.03354609375 0.87890625
vt 0.00005234374999999597 0.87890625
vt 0.00005234374999999597 0.859375
vt 0.20924296875 0.8589312499999999
vt 0.20924296875 0.8784624999999999
vt 0.17574921875 0.8784624999999999
vt 0.17574921875 0.8589312499999999
vt 0.17574921875 0.8589312499999999
vt 0.17574921875 0.8784624999999999
vt 0.14225546875 0.8784624999999999
vt 0.14225546875 0.8589312499999999
vt 0.14225546875 0.8589312499999999
vt 0.14225546875 0.8784624999999999
vt 0.11190468749999999 0.8784624999999999
vt 0.11190468749999999 0.8589312499999999
vt 0.04345703125 0.513671875
vt 0.04345703125 0.533203125
vt 0.017948437499999997 0.537109375
vt 0.0014484374999999966 0.511328125
vt 0.57670859375 0.890625
vt 0.5703125 0.86230234375
vt 0.6005859375 0.84942890625
vt 0.6005859375 0.8790609375
vt 0.5550414324977886 0.7109375
vt 0.5550414324977886 0.671875
vt 0.5863523699977886 0.681640625
vt 0.5851336199977886 0.703125
vt 0.00007080281946433148 0.380859375
vt 0.02922607218053567 0.3951193687946828
vt 0.01239329857397186 0.42168292840443444
vt 0.00007080281946433148 0.41531059054374253
vt 0.13464598899821345 0.5855116831153607
vt 0.13481226076689787 0.5659811408734915
vt 0.15957442314313375 0.5681451474160437
vt 0.16006192906485572 0.5954940386574897
vt 0.2859671875 0.8984375
vt 0.2859671875 0.87890625
vt 0.31631796875 0.87890625
vt 0.31631796875 0.8984375
vt 0.2524734375 0.8984375
vt 0.2524734375 0.87890625
vt 0.2859671875 0.87890625
vt 0.2859671875 0.8984375
vt 0.2189796875 0.8984375
vt 0.2189796875 0.87890625
vt 0.2524734375 0.87890625
vt 0.2524734375 0.8984375
vt 0.06703984375 0.8984375
vt 0.06703984375 0.87890625
vt 0.10053359375000001 0.87890625
vt 0.10053359375000001 0.8984375
vt 0.03354609375 0.8984375
vt 0.03354609375 0.87890625
vt 0.06703984375 0.87890625
vt 0.06703984375 0.8984375
vt 0.00005234374999999597 0.8984375
vt 0.00005234374999999597 0.87890625
vt 0.03354609375 0.87890625
vt 0.03354609375 0.8984375
vt 0.17574921875 0.8979937499999999
vt 0.17574921875 0.8784624999999999
vt 0.20924296875 0.8784624999999999
vt 0.20924296875 0.8979937499999999
vt 0.14225546875 0.8979937499999999
vt 0.14225546875 0.8784624999999999
vt 0.17574921875 0.8784624999999999
vt 0.17574921875 0.8979937499999999
vt 0.11190468749999999 0.8979937499999999
vt 0.11190468749999999 0.8784624999999999
vt 0.14225546875 0.8784624999999999
vt 0.14225546875 0.8979937499999999
vt 0.017948437499999997 0.5625
vt 0.017948437499999997 0.537109375
vt 0.04345703125 0.533203125
vt 0.04345703125 0.552734375
vt 0.6016234375 0.904296875
vt 0.6016234375 0.923828125
vt 0.5703125 0.927734375
vt 0.57167734375 0.901953125
vn -0.17556172079419582 -0.9363291775690445 -0.3040818202797687
vn 0.39837752068230536 -0.011066042241176114 0.9171547817703051
vn 0.35355339059327373 0.7071067811865476 0.6123724356957947
vn -0.30408182027976877 -0.9363291775690447 -0.17556172079419585
vn 0.9489456503783757 0.11861820629729518 0.29228731372191685
vn 0.6123724356957946 0.7071067811865475 0.35355339059327373
vn -0.35112344158839176 -0.9363291775690447 0
vn 1 1.1102230246251565e-16 0
vn 0.7071067811865476 0.7071067811865475 0
vn -0.30408182027976877 -0.9363291775690445 0.17556172079419585
vn 0.8660254037844383 9.614813431917815e-17 -0.5000000000000009
vn 0.6123724356957946 0.7071067811865475 -0.35355339059327373
vn -0.17556172079419588 -0.9363291775690445 0.3040818202797687
vn 0.5000000000000008 -2.7755575615628953e-16 -0.8660254037844383
vn 0.3535533905932738 0.7071067811865476 -0.6123724356957945
vn -1.4548479351631746e-16 -0.9363291775690445 0.35112344158839176
vn 4.1434087356338823e-16 1.1500269446834361e-31 -1
vn 2.929832414194295e-16 0.7071067811865476 -0.7071067811865476
vn 0.1755617207941957 -0.9363291775690447 0.3040818202797688
vn -0.4999999999999993 -3.8857805861880425e-16 -0.866025403784439
vn -0.35355339059327345 0.7071067811865476 -0.6123724356957948
vn 0.30408182027976877 -0.9363291775690444 0.17556172079419577
vn -0.8660254037844384 -3.8459253727671266e-16 -0.5000000000000006
vn -0.6123724356957947 0.7071067811865476 -0.3535533905932736
vn 0.3511234415883917 -0.9363291775690445 7.274239675815877e-17
vn -0.7071067811865476 0.7071067811865475 -1.4649162070971488e-16
vn 0.30408182027976877 -0.9363291775690444 -0.17556172079419569
vn -0.9556929011964671 0 0.29436555267673514
vn -0.6123724356957948 0.7071067811865475 0.3535533905932735
vn 0.17556172079419585 -0.9363291775690447 -0.30408182027976877
vn -0.38780922587888145 0.048476153234860576 0.920464049754673
vn -0.35355339059327373 0.7071067811865475 0.6123724356957946
vn 0 -0.9363291775690445 -0.35112344158839176
vn 0 0 0
vn 0 0.7071067811865475 0.7071067811865476
vn -1 1.1102230246251565e-16 0
vn -0.5547945754950925 -0.027739728774753936 0.831524796051641
vn -0.9144088493388278 0 0.4047918678170809
vn -1 -8.881784197001253e-17 -4.1434087356338823e-16
vn -0.8660254037844389 0 -0.4999999999999996
vn -0.4999999999999996 0 -0.8660254037844389
vn 4.143408735633879e-16 0 -1
vn 0.5 4.4408920985006264e-17 -0.8660254037844387
vn 0.8660254037844387 7.691850745534256e-17 -0.49999999999999983
vn 1 8.881784197001252e-17 0
vn 0.9134546237642623 -0.04567273118821295 0.40436944982218825
vn 0.5528382759908481 0.08834013688513397 0.8285926989870132
vn 0 0 -1
vn -0.6565304282524843 -2.2158414013512847e-15 0.754299540486808
vn -0.955692901196466 0 0.2943655526767391
vn -1 0 0
vn -0.8660254037844387 3.0767402982137023e-16 -0.5000000000000002
vn -0.49999999999999944 3.1086244689504347e-16 -0.866025403784439
vn 4.1434087356338794e-16 -7.360172445973986e-32 -1
vn 0.5000000000000004 1.776356839400252e-16 -0.8660254037844384
vn 0.8660254037844384 0 -0.5000000000000006
vn 1 0 0
vn 0.9556929011964658 1.1883561349846268e-15 0.2943655526767397
vn 0.6727708205843732 0.6116098368948942 0.41630857591890896
vn 0 0.970142500145332 0.242535625036333
vn -0.9956342260592882 7.781847334806124e-15 -0.09334070869305874
vn 0 -0.9987523388778448 -0.04993761694389118
vn 0.9980525784828886 5.727822769423357e-15 -0.06237828615518103
vn 0 0 -1
vn 0 -1 0
vn 0 -1 0
vn 0 -1 0
vn 0 0 -1
vn 0 -1 0
vn 0 -1 0
vn 0 0 0
vn 0 1 0
vn 0 0 0
vn 0 0 0
vn 0 0 0
vn 0 -1 0
vn -0.5393093452946375 -0.5347389271141719 0.6505380157274852
vn -0.9556929011964654 -3.3953032428132184e-15 0.29436555267674125
vn -1 0 0
vn -0.8660254037844387 -3.0767402982137023e-16 -0.5
vn -0.49999999999999944 1.7763568394002483e-16 -0.866025403784439
vn 4.1434087356338794e-16 -2.9440689783895945e-31 -1
vn 0.5000000000000002 -8.881784197001258e-17 -0.8660254037844387
vn 0.8660254037844386 3.076740298213702e-16 -0.5000000000000002
vn 1 -3.5527136788005006e-16 0
vn 0.9556929011964661 -3.3953032428132213e-16 0.29436555267673886
vn 0.6565304282524871 9.329858532005447e-16 0.7542995404868057
vn 0.7167452365955813 0.651586578723266 -0.24841738313824444
vn -0.9980525784828885 7.80074910502419e-15 -0.06237828615518296
vn -0.7099285669998747 -0.7039122232117369 -0.022561289205504684
vn -0.6758271337323406 -2.401020302515422e-15 0.7370601639697598
vn -0.9556929011964654 0 0.29436555267674125
vn -1 0 0
vn -0.8660254037844387 3.0767402982137023e-16 -0.5
vn -0.4999999999999995 2.664535259100373e-16 -0.8660254037844389
vn 4.1434087356338794e-16 -1.4720344891947973e-31 -1
vn 0.5000000000000001 3.552713678800502e-16 -0.8660254037844386
vn 0.8660254037844386 0 -0.5000000000000002
vn 1 0 0
vn 0.9556929011964661 1.3581212971252885e-15 0.29436555267673886
vn 0.6565304282524873 3.767827484079124e-15 0.7542995404868053
vn 0.9980525784828885 7.446169600250363e-15 -0.06237828615518124
usemtl m_11f472a4-431f-5f41-e8fc-dc71e0685d59
f 5/1/1 3/2/1 1/3/1
f 4/4/2 39/5/2 49/6/2 6/7/2
f 4/8/3 6/9/3 2/10/3
f 7/11/4 5/12/4 1/13/4
f 6/14/5 49/15/5 48/16/5 8/17/5
f 6/18/6 8/19/6 2/20/6
f 9/21/7 7/22/7 1/23/7
f 8/24/8 48/25/8 47/26/8 10/27/8
f 8/28/9 10/29/9 2/30/9
f 11/31/10 9/32/10 1/33/10
f 10/34/11 47/35/11 46/36/11 12/37/11
f 10/38/12 12/39/12 2/40/12
f 13/41/13 11/42/13 1/43/13
f 12/44/14 46/45/14 45/46/14 14/47/14
f 12/48/15 14/49/15 2/50/15
f 15/51/16 13/52/16 1/53/16
f 14/54/17 45/55/17 44/56/17 16/57/17
f 14/58/18 16/59/18 2/60/18
f 17/61/19 15/62/19 1/63/19
f 16/64/20 44/65/20 43/66/20 18/67/20
f 16/68/21 18/69/21 2/70/21
f 19/71/22 17/72/22 1/73/22
f 18/74/23 43/75/23 42/76/23 20/77/23
f 18/78/24 20/79/24 2/80/24
f 21/81/25 19/82/25 1/83/25
f 20/84/26 22/85/26 2/86/26
f 23/87/27 21/88/27 1/89/27
f 22/90/28 41/91/28 40/92/28 24/93/28
f 22/94/29 24/95/29 2/96/29
f 25/97/30 23/98/30 1/99/30
f 24/100/31 40/101/31 100/102/31 26/103/31
f 24/104/32 26/105/32 2/106/32
f 3/107/33 25/108/33 1/109/33
f 64/110/34 25/111/34 63/112/34 3/113/34
f 26/114/35 4/115/35 2/116/35
f 20/117/36 42/118/36 41/119/36 22/120/36
f 29/121/37 65/122/37 64/123/37 28/124/37
f 30/125/38 66/126/38 65/127/38 29/128/38
f 31/129/39 67/130/39 66/131/39 30/132/39
f 32/133/40 68/134/40 67/135/40 31/136/40
f 33/137/41 69/138/41 68/139/41 32/140/41
f 34/141/42 70/142/42 69/143/42 33/144/42
f 35/145/43 71/146/43 70/147/43 34/148/43
f 36/149/44 60/150/44 71/151/44 35/152/44
f 37/153/45 61/154/45 60/155/45 36/156/45
f 38/157/46 62/158/46 61/159/46 37/160/46
f 27/161/47 63/162/47 62/163/47 38/164/47
f 4/165/48 39/166/48 100/167/48 26/168/48
f 40/169/49 73/170/49 72/171/49 100/172/49
f 41/173/50 74/174/50 73/175/50 40/176/50
f 42/177/51 75/178/51 74/179/51 41/180/51
f 43/181/52 76/182/52 75/183/52 42/184/52
f 44/185/53 77/186/53 76/187/53 43/188/53
f 45/189/54 78/190/54 77/191/54 44/192/54
f 46/193/55 79/194/55 78/195/55 45/196/55
f 47/197/56 80/198/56 79/199/56 46/200/56
f 48/201/57 81/202/57 80/203/57 47/204/57
f 49/205/58 82/206/58 81/207/58 48/208/58
f 39/209/59 83/210/59 82/211/59 49/212/59
f 39/213/60 50/214/60 51/215/60 100/216/60
f 85/217/61 87/218/61 86/219/61 72/220/61
f 28/221/62 54/222/62 55/223/62 27/224/62
f 83/225/63 98/226/63 99/227/63 84/228/63
f 54/229/64 58/230/64 59/231/64 55/232/64
f 9/233/65 60/234/65 61/235/65 7/236/65
f 7/237/66 61/238/66 62/239/66 5/240/66
f 5/241/67 62/242/67 63/243/67 3/244/67
f 27/245/68 63/246/68 64/247/68 28/248/68
f 25/249/69 64/250/69 65/251/69 23/252/69
f 23/253/70 65/254/70 66/255/70 21/256/70
f 21/257/71 66/258/71 67/259/71 19/260/71
f 19/261/72 67/262/72 68/263/72 17/264/72
f 17/265/73 68/266/73 69/267/73 15/268/73
f 15/269/74 69/270/74 70/271/74 13/272/74
f 13/273/75 70/274/75 71/275/75 11/276/75
f 11/277/76 71/278/76 60/279/76 9/280/76
f 28/281/77 86/282/77 88/283/77 29/284/77
f 29/285/78 88/286/78 89/287/78 30/288/78
f 30/289/79 89/290/79 90/291/79 31/292/79
f 31/293/80 90/294/80 91/295/80 32/296/80
f 32/297/81 91/298/81 92/299/81 33/300/81
f 33/301/82 92/302/82 93/303/82 34/304/82
f 34/305/83 93/306/83 94/307/83 35/308/83
f 35/309/84 94/310/84 95/311/84 36/312/84
f 36/313/85 95/314/85 96/315/85 37/316/85
f 37/317/86 96/318/86 97/319/86 38/320/86
f 38/321/87 97/322/87 98/323/87 27/324/87
f 39/325/88 83/326/88 84/327/88 56/328/88
f 53/329/89 85/330/89 72/331/89 100/332/89
f 28/333/90 86/334/90 87/335/90 52/336/90
f 73/337/91 88/338/91 86/339/91 72/340/91
f 74/341/92 89/342/92 88/343/92 73/344/92
f 75/345/93 90/346/93 89/347/93 74/348/93
f 76/349/94 91/350/94 90/351/94 75/352/94
f 77/353/95 92/354/95 91/355/95 76/356/95
f 78/357/96 93/358/96 92/359/96 77/360/96
f 79/361/97 94/362/97 93/363/97 78/364/97
f 80/365/98 95/366/98 94/367/98 79/368/98
f 81/369/99 96/370/99 95/371/99 80/372/99
f 82/373/100 97/374/100 96/375/100 81/376/100
f 83/377/101 98/378/101 97/379/101 82/380/101
f 57/381/102 99/382/102 98/383/102 27/384/102
o pyramid
v 0.7556418845966671 0.43380785454965215 -0.4526787333937855
v 0.4773714221532834 0.7205960727251742 -0.12718976638068785
v 0.34304652006657765 0.7205960727251739 -0.33803762783390884
v 0.5046624510433521 1.3125000000000002 -0.1445760692733895
v 0.37033754895664606 1.3124999999999998 -0.35542393072661094
vt 0.53125 0.85546875
vt 0.5625 0.85546875
vt 0.5625 0.9296875
vt 0.53125 0.9296875
vt 0.5470973828102292 0.4431261132823854
vt 0.5774143359397708 0.435546875
vt 0.5774143359397708 0.49997040040027596
vt 0.4375292390280981 0.640625
vt 0.5033611745908058 0.6066148436827503
vt 0.558076229721902 0.640625
vt 0.45320976559137516 0.4921599448689038
vt 0.48721992190862484 0.4263280093061962
vt 0.48721992190862484 0.546875
vt 0.41419431224439535 0.40694144276403177
vt 0.44518068775560465 0.40289088321276845
vt 0.4451806877556046 0.5234375
vn -0.8421339514574695 0.05458728328056626 0.5364984960898548
vn -0.48374945993830987 -0.8191520442889926 0.3081823946083844
vn 0.7532473693303451 -0.015415367188652933 0.6575566645174801
vn -0.2776126315828936 -0.015415367188655863 -0.9605694109433528
vn 0.7749961301048434 0.3944802414524063 -0.49372698673069115
usemtl m_11f472a4-431f-5f41-e8fc-dc71e0685d59
f 103/385/103 102/386/103 104/387/103 105/388/103
f 102/389/104 103/390/104 101/391/104
f 104/392/105 102/393/105 101/394/105
f 103/395/106 105/396/106 101/397/106
f 105/398/107 104/399/107 101/400/107
o pyramid
v -0.7641798061996193 0.43380785454965154 -0.43860867404816495
v -0.346976566241509 0.7205960727251741 -0.3420738384489721
v -0.47197656624150874 0.7205960727251741 -0.12556748750286284
v -0.375 1.3125 -0.35825317547305496
v -0.5 1.3125 -0.14174682452694526
vt 0.5390625 0.76953125
vt 0.5703125 0.76953125
vt 0.5703125 0.84375
vt 0.5390625 0.84375
vt 0.23459738281022918 0.3884386132823854
vt 0.2649143359397708 0.380859375
vt 0.2649143359397708 0.44528290040027596
vt 0.4609667390280981 0.59375
vt 0.5267986745908058 0.5597398436827503
vt 0.581513729721902 0.59375
vt 0.26570976559137516 0.4687224448689038
vt 0.29971992190862484 0.4028905093061962
vt 0.29971992190862484 0.5234375
vt 0.04700681224439537 0.38350394276403177
vt 0.07799318775560463 0.37945338321276845
vt 0.07799318775560461 0.5
vn 0.8647341622591509 0.05458728328056789 0.49925450135778626
vn 0.49673176489215426 -0.8191520442889917 0.28678821817552325
vn 0.23544895664431853 -0.015415367188655065 -0.9717644546234139
vn -0.7238482258764477 -0.015415367188654648 0.6897870050602276
vn -0.7957945742009926 0.39448024145240485 -0.45945221163458677
usemtl m_11f472a4-431f-5f41-e8fc-dc71e0685d59
f 108/401/108 107/402/108 109/403/108 110/404/108
f 107/405/109 108/406/109 106/407/109
f 109/408/110 107/409/110 106/410/110
f 108/411/111 110/412/111 106/413/111
f 110/414/112 109/415/112 106/416/112
o pyramid
v -0.016453989627539006 0.4338078545496502 0.8768583207654612
v -0.12346956215979624 0.7205960727251742 0.46221970081876596
v 0.12629249323566763 0.7205960727251742 0.47312454766010037
v -0.12488102769773245 1.3125 0.49454757657933474
v 0.12488102769773193 1.3125 0.5054524234206691
vt 0.515625 0.65234375
vt 0.546875 0.65234375
vt 0.546875 0.7265625
vt 0.515625 0.7265625
vt 0.10178488281022918 0.3962511132823854
vt 0.13210183593977082 0.388671875
vt 0.13210183593977082 0.45309540040027596
vt 0.06252923902809807 0.765625
vt 0.12836117459080573 0.7316148436827503
vt 0.18307622972190193 0.765625
vt 0.07820976559137514 0.5234099448689038
vt 0.11221992190862481 0.4575780093061962
vt 0.11221992190862486 0.578125
vt 0.37513181224439535 0.40694144276403177
vt 0.40611818775560465 0.40289088321276845
vt 0.4061181877556046 0.5234375
vn 0.04355435097722753 0.05458728328057204 -0.9975586433964667
vn 0.02501905276082654 -0.8191520442889894 -0.5730305186777754
vn -0.9706838277666446 -0.015415367188656395 0.23986511410943867
vn 0.9460844605650715 -0.015415367188655634 0.32355302491513943
vn -0.040082047990300435 0.3944802414524011 0.918029829870772
usemtl m_11f472a4-431f-5f41-e8fc-dc71e0685d59
f 113/417/113 112/418/113 114/419/113 115/420/113
f 112/421/114 113/422/114 111/423/114
f 114/424/115 112/425/115 111/426/115
f 113/427/116 115/428/116 111/429/116
f 115/430/117 114/431/117 111/432/117
o cylinder
v -6.938893903907228e-18 0.75 -6.938893903907228e-18
v -6.938893903907228e-18 1.1875 -6.938893903907228e-18
v 0.10048094716167098 0.5625 0.4375
v 0.10048094716167098 1.1875 0.375
v 0.3370190528383289 0.5625 0.337019052838329
v 0.2745190528383289 1.1875 0.274519052838329
v 0.4375 0.5625 0.10048094716167098
v 0.375 1.1875 0.10048094716167098
v 0.4375 0.5625 -0.10048094716167104
v 0.375 1.1875 -0.10048094716167104
v 0.337019052838329 0.5625 -0.337019052838329
v 0.274519052838329 1.1875 -0.274519052838329
v 0.10048094716167111 0.5625 -0.4374999999999999
v 0.10048094716167111 1.1875 -0.3749999999999999
v -0.10048094716167086 0.5625 -0.4375
v -0.10048094716167086 1.1875 -0.375
v -0.337019052838329 0.5625 -0.337019052838329
v -0.274519052838329 1.1875 -0.274519052838329
v -0.4374999999999999 0.5625 -0.10048094716167096
v -0.3749999999999999 1.1875 -0.10048094716167096
v -0.4375 0.5625 0.10048094716167082
v -0.375 1.1875 0.10048094716167082
v -0.337019052838329 0.5625 0.3370190528383289
v -0.274519052838329 1.1875 0.2745190528383289
v -0.10048094716167097 0.5625 0.4375
v -0.10048094716167097 1.1875 0.375
vt 0.34640802440354757 0.9154336875355421
vt 0.376355859375 0.90380859375
vt 0.3889161073778044 0.963307465890174
vt 0.05723790878967086 0.5764262755016444
vt 0.08933855003735335 0.5776770578518501
vt 0.08213714439244037 0.65625
vt 0.05723790878967086 0.6548826399693425
vt 0.38756015625 0.796875
vt 0.40931484375 0.80943515625
vt 0.375 0.84375
vt 0.33132125164497456 0.9437957204798002
vt 0.34640802440354757 0.9154336875355421
vt 0.3889161073778044 0.963307465890174
vt 0.36720441871264664 0.538613625130974
vt 0.39930509628967087 0.5373637755016444
vt 0.39930509628967087 0.6158786893238277
vt 0.3744012616908521 0.6171282271033178
vt 0.40931484375 0.80943515625
vt 0.421875 0.83118984375
vt 0.375 0.84375
vt 0.3283490941819291 0.9687395850583397
vt 0.33132125164497456 0.9437957204798002
vt 0.38891568664649945 0.9633073233565743
vt 0.39930509628967087 0.5373637755016444
vt 0.42442540878967083 0.5373637755016444
vt 0.42442540878967083 0.6158786192516443
vt 0.39930509628967087 0.6158786192516443
vt 0.421875 0.83118984375
vt 0.421875 0.85631015625
vt 0.375 0.84375
vt 0.3363491970423902 0.9998525080843436
vt 0.3283490941819291 0.9687395850583397
vt 0.38891612908961887 0.9633072836735294
vt 0.42442540878967083 0.5373637755016444
vt 0.45652605003735336 0.5386145578518501
vt 0.44932464439244035 0.6171875
vt 0.42442540878967083 0.6158201399693425
vt 0.421875 0.85631015625
vt 0.40931484375 0.87806484375
vt 0.375 0.84375
vt 0.234972265625 0.4951171875
vt 0.26492010059645243 0.5067422812855421
vt 0.2224120176221956 0.554616059640174
vt 0.26564191871264664 0.538613625130974
vt 0.29774259628967087 0.5373637755016444
vt 0.29774259628967087 0.6158786893238277
vt 0.2728387616908521 0.6171282271033178
vt 0.40931484375 0.87806484375
vt 0.38756015625 0.890625
vt 0.375 0.84375
vt 0.209851953125 0.4951171875
vt 0.234972265625 0.4951171875
vt 0.222412109375 0.5546156250000001
vt 0.29774259628967087 0.5373637755016444
vt 0.32286290878967083 0.5373637755016444
vt 0.32286290878967083 0.6158786192516443
vt 0.29774259628967087 0.6158786192516443
vt 0.38756015625 0.890625
vt 0.36243984375 0.890625
vt 0.375 0.84375
vt 0.17990411815354757 0.5067422812855421
vt 0.209851953125 0.4951171875
vt 0.2224122011278044 0.554616059640174
vt 0.32286290878967083 0.5373637755016444
vt 0.35496355003735336 0.5386145578518501
vt 0.34776214439244035 0.6171875
vt 0.32286290878967083 0.6158201399693425
vt 0.36243984375 0.890625
vt 0.34068515625 0.87806484375
vt 0.375 0.84375
vt 0.4494829370680709 0.9687395850583397
vt 0.4414828342076098 0.9998525080843436
vt 0.38891590216038113 0.9633072836735294
vt 0.42970441871264664 0.819863625130974
vt 0.46180509628967087 0.8186137755016444
vt 0.46180509628967087 0.8971286893238277
vt 0.4369012616908521 0.8983782271033177
vt 0.34068515625 0.87806484375
vt 0.328125 0.85631015625
vt 0.375 0.84375
vt 0.44651077960502544 0.9437957204798002
vt 0.4494829370680709 0.9687395850583397
vt 0.38891634460350055 0.9633073233565743
vt 0.46180509628967087 0.8186137755016444
vt 0.48692540878967083 0.8186137755016444
vt 0.48692540878967083 0.8971286192516443
vt 0.46180509628967087 0.8971286192516443
vt 0.328125 0.85631015625
vt 0.328125 0.83118984375
vt 0.375 0.84375
vt 0.43142400684645243 0.9154336875355421
vt 0.44651077960502544 0.9437957204798002
vt 0.3889159238721956 0.963307465890174
vt 0.48692540878967083 0.8186137755016444
vt 0.5190260500373534 0.8198645578518501
vt 0.5118246443924404 0.8984375
vt 0.48692540878967083 0.8970701399693425
vt 0.328125 0.83118984375
vt 0.34068515625 0.80943515625
vt 0.375 0.84375
vt 0.401476171875 0.90380859375
vt 0.43142400684645243 0.9154336875355421
vt 0.3889159238721956 0.963307465890174
vt 0.000016918712646654677 0.577676125130974
vt 0.03211759628967087 0.5764262755016444
vt 0.03211759628967087 0.6549411893238277
vt 0.007213761690852097 0.6561907271033178
vt 0.34068515625 0.80943515625
vt 0.36243984375 0.796875
vt 0.375 0.84375
vt 0.376355859375 0.90380859375
vt 0.401476171875 0.90380859375
vt 0.388916015625 0.9633070312500001
vt 0.03211759628967087 0.5764262755016444
vt 0.05723790878967086 0.5764262755016444
vt 0.05723790878967086 0.6549411192516443
vt 0.03211759628967087 0.6549411192516443
vt 0.36243984375 0.796875
vt 0.38756015625 0.796875
vt 0.375 0.84375
vn -0.1526995926589812 -0.920580547489885 -0.3594638924634918
vn 0.38766410712824206 0.13002483942907522 0.9125842871625099
vn 0 1 0
vn -0.3594638924634918 -0.9205805474898849 -0.15269959265898128
vn 0.9165238892339376 0.09165238892339377 0.3893376427577119
vn 0 1 0
vn -0.3939192985791678 -0.919145030018058 0
vn 0.9950371902099892 0.09950371902099892 0
vn 0 1 0
vn -0.3594638924634918 -0.920580547489885 0.15269959265898114
vn 0.9125842871625098 0.13002483942907517 -0.3876641071282419
vn 0 1 0
vn -0.15269959265898103 -0.920580547489885 0.35946389246349186
vn 0.3893376427577113 0.09165238892339378 -0.9165238892339379
vn 0 1 0
vn -2.1762248838235918e-16 -0.919145030018058 0.3939192985791678
vn 5.497127714928878e-16 0.09950371902099893 -0.9950371902099892
vn 0 1 0
vn 0.15269959265898106 -0.920580547489885 0.35946389246349186
vn -0.38766410712824173 0.1300248394290752 -0.91258428716251
vn 0 1 0
vn 0.359463892463492 -0.9205805474898849 0.15269959265898098
vn -0.9165238892339381 0.09165238892339382 -0.38933764275771127
vn 0 1 0
vn 0.39391929857916774 -0.9191450300180579 2.1762248838235936e-16
vn -0.9950371902099892 0.09950371902099892 -5.497127714928883e-16
vn 0 1 0
vn 0.3594638924634919 -0.9205805474898849 -0.15269959265898111
vn -0.91258428716251 0.13002483942907522 0.3876641071282419
vn 0 1 0
vn 0.15269959265898125 -0.9205805474898849 -0.3594638924634918
vn -0.38933764275771193 0.09165238892339377 0.9165238892339378
vn 0 1 0
vn 0 -0.919145030018058 -0.39391929857916774
vn 0 0.09950371902099892 0.9950371902099892
vn 0 1 0
usemtl m_11f472a4-431f-5f41-e8fc-dc71e0685d59
f 120/433/118 118/434/118 116/435/118
f 118/436/119 120/437/119 121/438/119 119/439/119
f 119/440/120 121/441/120 117/442/120
f 122/443/121 120/444/121 116/445/121
f 120/446/122 122/447/122 123/448/122 121/449/122
f 121/450/123 123/451/123 117/452/123
f 124/453/124 122/454/124 116/455/124
f 122/456/125 124/457/125 125/458/125 123/459/125
f 123/460/126 125/461/126 117/462/126
f 126/463/127 124/464/127 116/465/127
f 124/466/128 126/467/128 127/468/128 125/469/128
f 125/470/129 127/471/129 117/472/129
f 128/473/130 126/474/130 116/475/130
f 126/476/131 128/477/131 129/478/131 127/479/131
f 127/480/132 129/481/132 117/482/132
f 130/483/133 128/484/133 116/485/133
f 128/486/134 130/487/134 131/488/134 129/489/134
f 129/490/135 131/491/135 117/492/135
f 132/493/136 130/494/136 116/495/136
f 130/496/137 132/497/137 133/498/137 131/499/137
f 131/500/138 133/501/138 117/502/138
f 134/503/139 132/504/139 116/505/139
f 132/506/140 134/507/140 135/508/140 133/509/140
f 133/510/141 135/511/141 117/512/141
f 136/513/142 134/514/142 116/515/142
f 134/516/143 136/517/143 137/518/143 135/519/143
f 135/520/144 137/521/144 117/522/144
f 138/523/145 136/524/145 116/525/145
f 136/526/146 138/527/146 139/528/146 137/529/146
f 137/530/147 139/531/147 117/532/147
f 140/533/148 138/534/148 116/535/148
f 138/536/149 140/537/149 141/538/149 139/539/149
f 139/540/150 141/541/150 117/542/150
f 118/543/151 140/544/151 116/545/151
f 140/546/152 118/547/152 119/548/152 141/549/152
f 141/550/153 119/551/153 117/552/153
o cylinder
v -1.1102230246251568e-17 1.59375 0.496875
v -1.1102230246251568e-17 1.59375 0.253125
v 0.116497564417433 1.875 0.49687500000000007
v 0.116497564417433 1.875 0.25312500000000004
v 0.28125 1.694622564417433 0.49687500000000007
v 0.28125 1.710247564417433 0.253125
v 0.28125 1.508502435582567 0.49687499999999996
v 0.28125 1.4772524355825671 0.253125
v 0.11649756441743302 1.3125 0.49687499999999996
v 0.11649756441743302 1.3125 0.25312499999999993
v -0.11649756441743297 1.3125 0.49687499999999996
v -0.11649756441743297 1.3125 0.25312499999999993
v -0.28124999999999994 1.477252435582567 0.49687499999999996
v -0.28124999999999994 1.477252435582567 0.253125
v -0.28125 1.694622564417433 0.49687500000000007
v -0.28125 1.710247564417433 0.253125
v -0.11649756441743321 1.875 0.49687500000000007
v -0.11649756441743321 1.875 0.25312500000000004
vt 0.53125 0.977453125
vt 0.51065625 1
vt 0.49609375 0.96484375
vt 0.57835 0.7666015625
vt 0.60888671875 0.7666015625
vt 0.60744453125 0.796875
vt 0.57835 0.79681875
vt 0.51065625 0.734375
vt 0.53125 0.75496875
vt 0.49609375 0.76953125
vt 0.53125 0.9541875
vt 0.53125 0.977453125
vt 0.49609375 0.96484375
vt 0.5879765625 0.5087890625
vt 0.6112421875 0.5087890625
vt 0.6151484375 0.5390625
vt 0.5860234375 0.5390625
vt 0.53125 0.75496875
vt 0.53125 0.78409375
vt 0.49609375 0.76953125
vt 0.51065625 0.9296875
vt 0.53125 0.9541875
vt 0.49609375 0.96484375
vt 0.5703125 0.6103515625
vt 0.6025390625 0.6103515625
vt 0.6025390625 0.640625
vt 0.57330234375 0.640625
vt 0.53125 0.78409375
vt 0.51065625 0.8046875
vt 0.49609375 0.76953125
vt 0.48153125 0.9296875
vt 0.51065625 0.9296875
vt 0.49609375 0.96484375
vt 0.546875 0.3916015625
vt 0.576171875 0.3916015625
vt 0.576171875 0.421875
vt 0.546875 0.421875
vt 0.51065625 0.8046875
vt 0.48153125 0.8046875
vt 0.49609375 0.76953125
vt 0.4609375 0.95028125
vt 0.48153125 0.9296875
vt 0.49609375 0.96484375
vt 0.453125 0.3837890625
vt 0.482421875 0.3837890625
vt 0.482421875 0.4140625
vt 0.453125 0.4140625
vt 0.48153125 0.8046875
vt 0.4609375 0.78409375
vt 0.49609375 0.76953125
vt 0.4609375 0.977453125
vt 0.4609375 0.95028125
vt 0.49609375 0.96484375
vt 0.5860234375 0.4697265625
vt 0.6131953125 0.4697265625
vt 0.6151484375 0.5
vt 0.5860234375 0.5
vt 0.4609375 0.78409375
vt 0.4609375 0.75496875
vt 0.49609375 0.76953125
vt 0.48153125 1
vt 0.4609375 0.977453125
vt 0.49609375 0.96484375
vt 0.578125 0.8056640625
vt 0.60888671875 0.8056640625
vt 0.60888671875 0.8359375
vt 0.5795671875 0.8359375
vt 0.4609375 0.75496875
vt 0.48153125 0.734375
vt 0.49609375 0.76953125
vt 0.51065625 1
vt 0.48153125 1
vt 0.49609375 0.96484375
vt 0.5859375 0.5478515625
vt 0.615234375 0.5478515625
vt 0.615234375 0.578125
vt 0.5859375 0.578125
vt 0.48153125 0.734375
vt 0.51065625 0.734375
vt 0.49609375 0.76953125
vn 0 -2.220446049250313e-16 1
vn 0.7376741922016194 0.6737739642383815 0.04319063873322977
vn 0 2.220446049250313e-16 -1
vn 0 -2.220446049250313e-16 1
vn 1 0 0
vn 0 2.220446049250313e-16 -1
vn 0 -2.220446049250313e-16 1
vn 0.7654924936862215 -0.6434448244488801 -1.428734518358077e-16
vn 0 2.220446049250313e-16 -1
vn 0 -2.220446049250313e-16 1
vn 0 -1 -2.220446049250313e-16
vn 0 2.220446049250313e-16 -1
vn 0 -2.220446049250313e-16 1
vn -0.7071067811865472 -0.7071067811865478 -1.5700924586837757e-16
vn 0 2.220446049250313e-16 -1
vn 0 -2.220446049250313e-16 1
vn -1 -2.5537617118232946e-16 -1.6370267383482714e-17
vn 0 2.220446049250313e-16 -1
vn 0 -2.220446049250313e-16 1
vn -0.7383631965734841 0.6744032843527576 1.4974761083425162e-16
vn 0 2.220446049250313e-16 -1
vn 0 -2.220446049250313e-16 1
vn -2.3825026518301586e-16 1 2.220446049250313e-16
vn 0 2.220446049250313e-16 -1
usemtl m_11f472a4-431f-5f41-e8fc-dc71e0685d59
f 146/553/154 144/554/154 142/555/154
f 144/556/155 146/557/155 147/558/155 145/559/155
f 145/560/156 147/561/156 143/562/156
f 148/563/157 146/564/157 142/565/157
f 146/566/158 148/567/158 149/568/158 147/569/158
f 147/570/159 149/571/159 143/572/159
f 150/573/160 148/574/160 142/575/160
f 148/576/161 150/577/161 151/578/161 149/579/161
f 149/580/162 151/581/162 143/582/162
f 152/583/163 150/584/163 142/585/163
f 150/586/164 152/587/164 153/588/164 151/589/164
f 151/590/165 153/591/165 143/592/165
f 154/593/166 152/594/166 142/595/166
f 152/596/167 154/597/167 155/598/167 153/599/167
f 153/600/168 155/601/168 143/602/168
f 156/603/169 154/604/169 142/605/169
f 154/606/170 156/607/170 157/608/170 155/609/170
f 155/610/171 157/611/171 143/612/171
f 158/613/172 156/614/172 142/615/172
f 156/616/173 158/617/173 159/618/173 157/619/173
f 157/620/174 159/621/174 143/622/174
f 144/623/175 158/624/175 142/625/175
f 158/626/176 144/627/176 145/628/176 159/629/176
f 159/630/177 145/631/177 143/632/177