# Made in Blockbench 5.2.0
mtllib materials.mtl

o beveled_cuboid
v 0.375 0.375 0.7499999999999996
v 0.375 0.375 -0.7499999999999996
v -0.375 0.375 0.7499999999999996
v -0.375 0.375 -0.7499999999999996
v 0.375 0 0.7499999999999996
v 0.375 0 -0.7499999999999996
v -0.375 0 0.7499999999999996
v -0.375 0 -0.7499999999999996
v -0.5 0.09375 0.7499999999999996
v -0.5 0.28125 0.7499999999999996
v -0.5 0.09375 -0.7499999999999996
v -0.5 0.28125 -0.7499999999999996
v 0.5 0.09375 0.7499999999999996
v 0.5 0.28125 0.7499999999999996
v 0.5 0.09375 -0.7499999999999996
v 0.5 0.28125 -0.7499999999999996
v 0.375 0.09375 -1
v 0.375 0.28125 -1
v -0.375 0.09375 -1
v -0.375 0.28125 -1
v 0.375 0.09375 1
v 0.375 0.28125 1
v -0.375 0.09375 1
v -0.375 0.28125 1
v 0.375 0.375 0.3125
v -0.375 0.375 0.3125
v -0.5 0.28125 0.3125
v -0.5 0.09375 0.3125
v -0.375 0 0.3125
v 0.375 0 0.3125
v 0.5 0.09375 0.3125
v 0.5 0.28125 0.3125
v -0.375 0.375 -0.7499999999999996
v 0.375 0.375 0.3125
v -0.375 0.375 0.3125
v 0.375 0.375 -0.7499999999999996
v -0.375 0.3125 -0.7499999999999996
v 0.375 0.3125 0.3125
v -0.375 0.3125 0.3125
v 0.375 0.3125 -0.7499999999999996
vt 0.59765625 1
vt 0.46484375 1
vt 0.46484375 0.9765625
vt 0.59765625 0.9765625
vt 0.41015625 0.7421875
vt 0.54296875 0.7421875
vt 0.54296875 0.765625
vt 0.41015625 0.765625
vt 0.1171875 0.7421875
vt 0.1171875 0.609375
vt 0.2109375 0.609375
vt 0.2109375 0.7421875
vt 0.34765625 0.7755630112192384
vt 0.34765625 0.9083755112192384
vt 0.25390625 0.9083755112192384
vt 0.25390625 0.7755630112192384
vt 0.171875 0.578125
vt 0.171875 0.6015625
vt 0.078125 0.6015625
vt 0.078125 0.578125
vt 0.4921875 0.8671875
vt 0.3984375 0.8671875
vt 0.3984375 0.84375
vt 0.4921875 0.84375
vt 0.15234375 0.9666244887807616
vt 0.1803226676664051 0.8367925192106032
vt 0.19941560436789896 0.840907065926251
vt 0.17143668670149387 0.9707390354964094
vt 0.03950081329850613 0.9707390354964094
vt 0.011521895632101015 0.8409070659262511
vt 0.030614832333594896 0.8367925192106033
vt 0.05859375 0.9666244887807616
vt 0.09077661299725878 0.714306426841504
vt 0.10452291630700301 0.744719084902195
vt 0.01909410152978104 0.7833322964464204
vt 0.005347798220036809 0.7529196383857294
vt 0.05859375 0.9666244887807616
vt 0.15234375 0.9666244887807616
vt 0.15234375 0.9999994887807616
vt 0.05859375 0.9999994887807616
vt 0.36674918670149387 0.7714484645035906
vt 0.39472810436789907 0.9012804340737489
vt 0.3756351676664052 0.9053949807893967
vt 0.34765625 0.7755630112192384
vt 0.25390625 0.7755630112192384
vt 0.2259273323335948 0.9053949807893967
vt 0.20683439563210093 0.9012804340737489
vt 0.23481331329850613 0.7714484645035906
vt 0.25390625 0.9630630112192384
vt 0.34765625 0.9630630112192384
vt 0.34765625 0.9964380112192384
vt 0.25390625 0.9964380112192384
vt 0.34765625 0.7421880112192385
vt 0.34765625 0.7755630112192384
vt 0.25390625 0.7755630112192384
vt 0.25390625 0.7421880112192385
vt 0.59765625 0.9765625
vt 0.6325953125 0.9765625
vt 0.6325953125 1
vt 0.59765625 1
vt 0.3752171875 1
vt 0.3752171875 0.9765625
vt 0.41015625 0.9765625
vt 0.41015625 1
vt 0.3752171875 0.765625
vt 0.3752171875 0.7421875
vt 0.41015625 0.7421875
vt 0.41015625 0.765625
vt 0.59765625 0.7421875
vt 0.6325953125 0.7421875
vt 0.6325953125 0.765625
vt 0.59765625 0.765625
vt 0.34765625 0.9630630112192384
vt 0.36674894476954156 0.9671775057983115
vt 0.34765625 0.9964385224384769
vt 0.25390625 0.9630630112192384
vt 0.25390625 0.9964385224384769
vt 0.23481355523045844 0.9671775057983115
vt 0.34765625 0.7755630112192384
vt 0.34765625 0.7421875
vt 0.36674894476954156 0.7714485166401652
vt 0.25390625 0.7755630112192384
vt 0.23481355523045844 0.7714485166401652
vt 0.25390625 0.7421875
vt 0.19184364040217128 0.783332348582995
vt 0.20559015426995925 0.752919224678532
vt 0.21093633517171284 0.7874468431620681
vt 0.01909410152978104 0.7833322964464204
vt 0.0000014067602394918222 0.7874467910254935
vt 0.0053475876619931 0.7529191725419573
vt 0.15234375 0.9666244887807616
vt 0.17143644476954153 0.9707389833598348
vt 0.15234375 1
vt 0.05859375 0.9666244887807616
vt 0.05859375 1
vt 0.039501055230458465 0.9707389833598348
vt 0.019094101529781027 0.7833322964464204
vt 0.030614832333594896 0.8367925192106033
vt 0.011521895632101015 0.8409070659262511
vt 0.0000011648282871590254 0.7874468431620683
vt 0.59765625 0.765625
vt 0.54296875 0.765625
vt 0.54296875 0.7421875
vt 0.59765625 0.7421875
vt 0.19531366482828702 0.9547406568379317
vt 0.20683439563210093 0.9012804340737489
vt 0.2259273323335948 0.9053949807893967
vt 0.21440660152978092 0.9588552035535796
vt 0.25390625 0.9630630112192384
vt 0.25390625 0.9083755112192384
vt 0.34765625 0.9083755112192384
vt 0.34765625 0.9630630112192384
vt 0.38715589847021914 0.9588552035535796
vt 0.3756351676664052 0.9053949807893967
vt 0.39472810436789907 0.9012804340737489
vt 0.40624883517171295 0.9547406568379317
vt 0.41015625 0.9765625
vt 0.46484375 0.9765625
vt 0.46484375 1
vt 0.41015625 1
vt 0.21093633517171284 0.7874468431620681
vt 0.19941560436789896 0.840907065926251
vt 0.1803226676664051 0.8367925192106032
vt 0.19184339847021897 0.7833322964464203
vt 0.40625 0.6875
vt 0.40625 0.734375
vt 0.2734375 0.734375
vt 0.2734375 0.6875
vt 0.2734375 0.6875
vt 0.2734375 0.734375
vt 0.21875 0.734375
vt 0.21875 0.6875
vt 0.1640625 0.7734375
vt 0.1640625 0.8203125
vt 0.0703125 0.8203125
vt 0.0703125 0.7734375
vt 0.4453125 0.7890625
vt 0.4453125 0.8359375
vt 0.390625 0.8359375
vt 0.390625 0.7890625
vt 0.4609375 0.6328125
vt 0.4609375 0.6796875
vt 0.328125 0.6796875
vt 0.328125 0.6328125
vt 0 0.8671875
vt 0 1
vt 0 1
vt 0 0.8671875
vt 0.09375 1
vt 0 1
vt 0 1
vt 0.09375 1
vt 0 1
vt 0 0.8671875
vt 0 0.8671875
vt 0 1
vt 0 1
vt 0.09375 1
vt 0.09375 1
vt 0 1
vt 0.3828125 0.7734375
vt 0.515625 0.7734375
vt 0.515625 0.78125
vt 0.3828125 0.78125
vt 0.4140625 0.9609375
vt 0.546875 0.9609375
vt 0.546875 0.96875
vt 0.4140625 0.96875
vt 0.4140625 0.9453125
vt 0.5078125 0.9453125
vt 0.5078125 0.953125
vt 0.4140625 0.953125
vt 0.4140625 0.9296875
vt 0.5078125 0.9296875
vt 0.5078125 0.9375
vt 0.4140625 0.9375
vt 0.15234375 0.8338119887807616
vt 0.15234375 0.9666244887807616
vt 0.05859375 0.9666244887807616
vt 0.05859375 0.8338119887807616
vn 1 0 0
vn -1 0 0
vn 0 1 0
vn 0 -1 0
vn 0 0 1
vn 0 0 -1
vn 0.6000000000000001 0.8000000000000002 0
vn -0.6000000000000001 0.8000000000000002 0
vn 0 0.9363291775690448 0.35112344158839115
vn 0 0.9363291775690448 -0.35112344158839115
vn 0.6000000000000001 -0.8000000000000002 0
vn -0.6000000000000001 -0.8000000000000002 0
vn 0 -0.9363291775690448 0.35112344158839115
vn 0 -0.9363291775690448 -0.35112344158839115
vn 0.8944271909999162 0 -0.4472135954999573
vn 0.8944271909999162 0 0.4472135954999573
vn -0.8944271909999162 0 -0.4472135954999573
vn -0.8944271909999162 0 0.4472135954999573
vn 0.574695771132691 -0.7662610281769212 0.28734788556634494
vn -0.574695771132691 -0.7662610281769212 0.28734788556634494
vn 0.574695771132691 -0.7662610281769212 -0.28734788556634494
vn -0.574695771132691 -0.7662610281769212 -0.28734788556634494
vn 0.574695771132691 0.7662610281769212 0.28734788556634494
vn -0.574695771132691 0.7662610281769212 0.28734788556634494
vn 0.574695771132691 0.7662610281769212 -0.28734788556634494
vn -0.574695771132691 0.7662610281769212 -0.28734788556634494
vn -0.6 0.8 0
vn -1 0 0
vn -0.6 -0.8 0
vn 0 -1 0
vn 0.6 -0.8 0
vn 1 0 0
vn 0.6 0.8 0
vn 1 0 0
vn 1 0 0
vn 0 0 -1
vn 1 0 0
vn -1 0 0
vn 0 0 0
vn 0 0 0
vn 0 0 0
vn 0 0 0
vn 1 0 0
vn -1 0 0
vn 0 0 1
vn 0 0 -1
vn 0 1 0
usemtl m_2089da40-a8b0-5ca3-dbb6-a24b0ce8004c
f 16/1/1 32/2/1 31/3/1 15/4/1
f 11/5/2 28/6/2 27/7/2 12/8/2
f 37/9/3 39/10/3 38/11/3 40/12/3
f 6/13/4 30/14/4 29/15/4 8/16/4
f 21/17/5 22/18/5 24/19/5 23/20/5
f 20/21/6 18/22/6 17/23/6 19/24/6
f 2/25/7 25/26/7 32/27/7 16/28/7
f 12/29/8 27/30/8 26/31/8 4/32/8
f 22/33/9 1/34/9 3/35/9 24/36/9
f 4/37/10 2/38/10 18/39/10 20/40/10
f 15/41/11 31/42/11 30/43/11 6/44/11
f 8/45/12 29/46/12 28/47/12 11/48/12
f 7/49/13 5/50/13 21/51/13 23/52/13
f 17/53/14 6/54/14 8/55/14 19/56/14
f 15/57/15 17/58/15 18/59/15 16/60/15
f 22/61/16 21/62/16 13/63/16 14/64/16
f 20/65/17 19/66/17 11/67/17 12/68/17
f 9/69/18 23/70/18 24/71/18 10/72/18
f 5/73/19 13/74/19 21/75/19
f 7/76/20 23/77/20 9/78/20
f 6/79/21 17/80/21 15/81/21
f 8/82/22 11/83/22 19/84/22
f 1/85/23 22/86/23 14/87/23
f 3/88/24 10/89/24 24/90/24
f 2/91/25 16/92/25 18/93/25
f 4/94/26 20/95/26 12/96/26
f 3/97/27 26/98/27 27/99/27 10/100/27
f 10/101/28 27/102/28 28/103/28 9/104/28
f 9/105/29 28/106/29 29/107/29 7/108/29
f 7/109/30 29/110/30 30/111/30 5/112/30
f 5/113/31 30/114/31 31/115/31 13/116/31
f 13/117/32 31/118/32 32/119/32 14/120/32
f 14/121/33 32/122/33 25/123/33 1/124/33
f 6/125/34 2/126/34 25/127/34 30/128/34
f 30/129/35 25/130/35 1/131/35 5/132/35
f 7/133/36 3/134/36 1/135/36 5/136/36
f 29/137/37 26/138/37 3/139/37 7/140/37
f 29/141/38 26/142/38 4/143/38 8/144/38
f 35/145/39 33/146/39 4/147/39 26/148/39
f 34/149/40 35/150/40 26/151/40 25/152/40
f 36/153/41 34/154/41 25/155/41 2/156/41
f 33/157/42 36/158/42 2/159/42 4/160/42
f 39/161/43 37/162/43 33/163/43 35/164/43
f 40/165/44 38/166/44 34/167/44 36/168/44
f 37/169/45 40/170/45 36/171/45 33/172/45
f 38/173/46 39/174/46 35/175/46 34/176/46
f 34/177/47 2/178/47 4/179/47 35/180/47
o beveled_cuboid
v 0.28125 0.3125 0.75
v 0.28125 0.3125 0.375
v -0.28125 0.3125 0.75
v -0.28125 0.3125 0.375
v 0.28125 0.0625 0.75
v 0.28125 0.0625 0.375
v -0.28125 0.0625 0.75
v -0.28125 0.0625 0.375
v -0.375 0.125 0.75
v -0.375 0.25 0.75
v -0.375 0.125 0.375
v -0.375 0.25 0.375
v 0.375 0.125 0.75
v 0.375 0.25 0.75
v 0.375 0.125 0.375
v 0.375 0.25 0.375
v 0.28125 0.125 0.3125
v 0.28125 0.25 0.3125
v -0.28125 0.125 0.3125
v -0.28125 0.25 0.3125
v 0.28125 0.125 0.8125
v 0.28125 0.25 0.8125
v -0.28125 0.125 0.8125
v -0.28125 0.25 0.8125
vt 0.2265625 0.6015625
vt 0.1796875 0.6015625
vt 0.1796875 0.5703125
vt 0.2265625 0.5703125
vt 0.28125 0.5703125
vt 0.28125 0.6015625
vt 0.234375 0.6015625
vt 0.234375 0.5703125
vt 0.0703125 0.578125
vt 0.0703125 0.625
vt 0 0.625
vt 0 0.578125
vt 0.328125 0.578125
vt 0.3984375 0.578125
vt 0.3984375 0.625
vt 0.328125 0.625
vt 0.0859375 0.65440546875
vt 0.0859375 0.68565546875
vt 0.015625 0.68565546875
vt 0.015625 0.65440546875
vt 0.3046875 0.66221796875
vt 0.234375 0.66221796875
vt 0.234375 0.63096796875
vt 0.3046875 0.63096796875
vt 0.2265625 1
vt 0.1796875 1
vt 0.1796875 0.9765625
vt 0.2265625 0.9765625
vt 0.453125 0.8828125
vt 0.453125 0.90625
vt 0.40625 0.90625
vt 0.40625 0.8828125
vt 0.0859375 0.68565546875
vt 0.0859375 0.703125
vt 0.015625 0.703125
vt 0.015625 0.68565546875
vt 0.3046875 0.6796875
vt 0.234375 0.6796875
vt 0.234375 0.66221796875
vt 0.3046875 0.66221796875
vt 0.40625 0.625
vt 0.40625 0.6015625
vt 0.453125 0.6015625
vt 0.453125 0.625
vt 0.40625 0.5703125
vt 0.453125 0.5703125
vt 0.453125 0.59375
vt 0.40625 0.59375
vt 0.015625 0.6369359375
vt 0.0859375 0.6369359375
vt 0.0859375 0.65440546875
vt 0.015625 0.65440546875
vt 0.234375 0.63096796875
vt 0.234375 0.6134984375
vt 0.3046875 0.6134984375
vt 0.3046875 0.63096796875
vt 0.22029062500000002 0.63096796875
vt 0.234375 0.63096796875
vt 0.234375 0.66221796875
vt 0.22029062500000002 0.66221796875
vt 0.0859375 0.68565546875
vt 0.0859375 0.65440546875
vt 0.100021875 0.65440546875
vt 0.100021875 0.68565546875
vt 0.3046875 0.66221796875
vt 0.3046875 0.63096796875
vt 0.318771875 0.63096796875
vt 0.318771875 0.66221796875
vt 0.0015406250000000038 0.65440546875
vt 0.015625 0.65440546875
vt 0.015625 0.68565546875
vt 0.0015406250000000038 0.68565546875
vt 0.09027109374999999 0.63748203125
vt 0.100021875 0.65440546875
vt 0.0859375 0.65440546875
vt 0.011291406250000004 0.63748203125
vt 0.015625 0.65440546875
vt 0.0015406250000000038 0.65440546875
vt 0.234375 0.6134984375
vt 0.234375 0.6309679186487476
vt 0.22073086037103617 0.6274740564697308
vt 0.3046875 0.6134984375
vt 0.3183316396289638 0.6274740564697308
vt 0.3046875 0.6309679186487476
vt 0.09027109374999999 0.70257890625
vt 0.0859375 0.68565546875
vt 0.100021875 0.68565546875
vt 0.011291406250000004 0.70257890625
vt 0.0015406250000000038 0.68565546875
vt 0.015625 0.68565546875
vt 0.234375 0.6796875
vt 0.22073086037103617 0.6657118810302693
vt 0.234375 0.6622180188512525
vt 0.3046875 0.6796875
vt 0.3046875 0.6622180188512525
vt 0.3183316396289638 0.6657118810302693
vn 1 0 0
vn -1 0 0
vn 0 1 0
vn 0 -1 0
vn 0 0 1
vn 0 0 -1
vn 0.5547001962252291 0.8320502943378438 0
vn -0.5547001962252291 0.8320502943378438 0
vn 0 0.7071067811865476 0.7071067811865476
vn 0 0.7071067811865476 -0.7071067811865476
vn 0.5547001962252291 -0.8320502943378438 0
vn -0.5547001962252291 -0.8320502943378438 0
vn 0 -0.7071067811865476 0.7071067811865476
vn 0 -0.7071067811865476 -0.7071067811865476
vn 0.5547001962252291 0 -0.8320502943378437
vn 0.5547001962252291 0 0.8320502943378437
vn -0.5547001962252291 0 -0.8320502943378437
vn -0.5547001962252291 0 0.8320502943378437
vn 0.42640143271122083 -0.6396021490668313 0.6396021490668313
vn -0.42640143271122083 -0.6396021490668313 0.6396021490668313
vn 0.42640143271122083 -0.6396021490668313 -0.6396021490668313
vn -0.42640143271122083 -0.6396021490668313 -0.6396021490668313
vn 0.42640143271122083 0.6396021490668313 0.6396021490668313
vn -0.42640143271122083 0.6396021490668313 0.6396021490668313
vn 0.42640143271122083 0.6396021490668313 -0.6396021490668313
vn -0.42640143271122083 0.6396021490668313 -0.6396021490668313
usemtl m_2089da40-a8b0-5ca3-dbb6-a24b0ce8004c
f 56/181/48 54/182/48 53/183/48 55/184/48
f 49/185/49 50/186/49 52/187/49 51/188/49
f 41/189/50 42/190/50 44/191/50 43/192/50
f 48/193/51 46/194/51 45/195/51 47/196/51
f 61/197/52 62/198/52 64/199/52 63/200/52
f 60/201/53 58/202/53 57/203/53 59/204/53
f 42/205/54 41/206/54 54/207/54 56/208/54
f 50/209/55 43/210/55 44/211/55 52/212/55
f 62/213/56 41/214/56 43/215/56 64/216/56
f 44/217/57 42/218/57 58/219/57 60/220/57
f 53/221/58 45/222/58 46/223/58 55/224/58
f 48/225/59 47/226/59 49/227/59 51/228/59
f 47/229/60 45/230/60 61/231/60 63/232/60
f 57/233/61 46/234/61 48/235/61 59/236/61
f 55/237/62 57/238/62 58/239/62 56/240/62
f 62/241/63 61/242/63 53/243/63 54/244/63
f 60/245/64 59/246/64 51/247/64 52/248/64
f 49/249/65 63/250/65 64/251/65 50/252/65
f 45/253/66 53/254/66 61/255/66
f 47/256/67 63/257/67 49/258/67
f 46/259/68 57/260/68 55/261/68
f 48/262/69 51/263/69 59/264/69
f 41/265/70 62/266/70 54/267/70
f 43/268/71 50/269/71 64/270/71
f 42/271/72 56/272/72 58/273/72
f 44/274/73 60/275/73 52/276/73