# Made in Blockbench 5.2.0
mtllib materials.mtl

o mesh
v 0.5 2.5 0.5
v 0.5 2.5 -0.5
v 0.5 0 0.5
v 0.5 0 -0.5
v -0.5 2.5 0.5
v -0.5 2.5 -0.5
v -0.5 0 0.5
v -0.5 0 -0.5
v 0.5 2.3125 -0.5
v -0.5 2.3125 -0.5
v -0.5 2.3125 0.5
v 0.5 2.3125 0.5
v -0.5 0.15625 -0.5
v 0.5 0.15625 -0.5
v 0.5 0.15625 0.5
v -0.5 0.15625 0.5
v -0.375 0.15625 -0.5
v -0.375 2.3125 -0.5
v -0.375 2.5 -0.5
v -0.375 2.5 0.5
v -0.375 2.3125 0.5
v -0.375 0.15625 0.5
v -0.375 0 0.5
v -0.375 0 -0.5
v 0.375 0.15625 -0.5
v 0.375 2.3125 -0.5
v 0.375 2.5 -0.5
v 0.375 2.5 0.5
v 0.375 2.3125 0.5
v 0.375 0.15625 0.5
v 0.375 0 0.5
v 0.375 0 -0.5
vt 0 0.9765625
vt 0 0.70703125
vt 0.125 0.70703125
vt 0.125 0.9765625
vt 0.1328125 0.9765625
vt 0.1328125 0.70703125
vt 0.2578125 0.70703125
vt 0.2578125 0.9765625
vt 0.3984375 0.875
vt 0.4140625 0.875
vt 0.4140625 1
vt 0.3984375 1
vt 0.3984375 0.7421875
vt 0.4140625 0.7421875
vt 0.4140625 0.8671875
vt 0.3984375 0.8671875
vt 0.265625 0.70703125
vt 0.28125 0.70703125
vt 0.28125 0.9765625
vt 0.265625 0.9765625
vt 0.125 0.65625
vt 0.109375 0.65625
vt 0.109375 0.38671875
vt 0.125 0.38671875
vt 0.125 0.6796875
vt 0.109375 0.6796875
vt 0.109375 0.65625
vt 0.125 0.65625
vt 0.1328125 1
vt 0.1328125 0.9765625
vt 0.2578125 0.9765625
vt 0.2578125 1
vt 0.265625 0.9765625
vt 0.28125 0.9765625
vt 0.28125 1
vt 0.265625 1
vt 0 1
vt 0 0.9765625
vt 0.125 0.9765625
vt 0.125 1
vt 0.125 0.38671875
vt 0.109375 0.38671875
vt 0.109375 0.3671875
vt 0.125 0.3671875
vt 0.125 0.6875
vt 0.125 0.70703125
vt 0 0.70703125
vt 0 0.6875
vt 0.265625 0.6875
vt 0.28125 0.6875
vt 0.28125 0.70703125
vt 0.265625 0.70703125
vt 0.2578125 0.6875
vt 0.2578125 0.70703125
vt 0.1328125 0.70703125
vt 0.1328125 0.6875
vt 0.109375 0.6796875
vt 0.015625 0.6796875
vt 0.015625 0.65625
vt 0.109375 0.65625
vt 0.4140625 0.875
vt 0.5078125 0.875
vt 0.5078125 1
vt 0.4140625 1
vt 0.28125 0.9765625
vt 0.375 0.9765625
vt 0.375 1
vt 0.28125 1
vt 0.28125 0.70703125
vt 0.375 0.70703125
vt 0.375 0.9765625
vt 0.28125 0.9765625
vt 0.28125 0.6875
vt 0.375 0.6875
vt 0.375 0.70703125
vt 0.28125 0.70703125
vt 0.4140625 0.7421875
vt 0.5078125 0.7421875
vt 0.5078125 0.8671875
vt 0.4140625 0.8671875
vt 0.109375 0.38671875
vt 0.015625 0.38671875
vt 0.015625 0.3671875
vt 0.109375 0.3671875
vt 0 0.38671875
vt 0.015625 0.38671875
vt 0.015625 0.65625
vt 0 0.65625
vt 0 0.65625
vt 0.015625 0.65625
vt 0.015625 0.6796875
vt 0 0.6796875
vt 0.5234375 1
vt 0.5078125 1
vt 0.5078125 0.875
vt 0.5234375 0.875
vt 0.390625 1
vt 0.375 1
vt 0.375 0.9765625
vt 0.390625 0.9765625
vt 0.390625 0.9765625
vt 0.375 0.9765625
vt 0.375 0.70703125
vt 0.390625 0.70703125
vt 0.390625 0.70703125
vt 0.375 0.70703125
vt 0.375 0.6875
vt 0.390625 0.6875
vt 0.5234375 0.8671875
vt 0.5078125 0.8671875
vt 0.5078125 0.7421875
vt 0.5234375 0.7421875
vt 0 0.3671875
vt 0.015625 0.3671875
vt 0.015625 0.38671875
vt 0 0.38671875
vt 0.4921875 0.6015625
vt 0.3984375 0.6015625
vt 0.3984375 0.4765625
vt 0.4921875 0.4765625
vt 0.3984375 0.609375
vt 0.5234375 0.609375
vt 0.5234375 0.734375
vt 0.3984375 0.734375
vt 0.1328125 0.6796875
vt 0.1328125 0.3828125
vt 0.2578125 0.3828125
vt 0.2578125 0.6796875
vt 0.265625 0.3828125
vt 0.390625 0.3828125
vt 0.390625 0.6796875
vt 0.265625 0.6796875
vn 1 0 0
vn -1 0 0
vn 0 1 0
vn 0 -1 0
vn 0 0 1
vn 0 0 -1
vn 0 0 -1
vn -1 0 0
vn 0 0 1
vn 1 0 0
vn 0 0 -1
vn 1 0 0
vn 0 0 1
vn -1 0 0
vn 0 0 -1
vn 0 1 0
vn 0 0 1
vn 0 0 1
vn 0 0 1
vn 0 -1 0
vn 0 0 -1
vn 0 0 -1
vn 0 0 -1
vn 0 1 0
vn 0 0 1
vn 0 0 1
vn 0 0 1
vn 0 -1 0
vn 0 0 -1
vn 0 -1 0
vn 0 1 0
vn 1 0 0
vn -1 0 0
usemtl m_3f7be668-2a3d-cc85-5a92-2b44d04f4522
f 12/1/1 15/2/1 14/3/1 9/4/1
f 10/5/2 13/6/2 16/7/2 11/8/2
f 5/9/3 20/10/3 19/11/3 6/12/3
f 8/13/4 24/14/4 23/15/4 7/16/4
f 16/17/5 22/18/5 21/19/5 11/20/5
f 10/21/6 18/22/6 17/23/6 13/24/6
f 6/25/7 19/26/7 18/27/7 10/28/7
f 6/29/8 10/30/8 11/31/8 5/32/8
f 11/33/9 21/34/9 20/35/9 5/36/9
f 1/37/10 12/38/10 9/39/10 2/40/10
f 13/41/11 17/42/11 24/43/11 8/44/11
f 4/45/12 14/46/12 15/47/12 3/48/12
f 7/49/13 23/50/13 22/51/13 16/52/13
f 7/53/14 16/54/14 13/55/14 8/56/14
f 19/57/15 27/58/15 26/59/15 18/60/15
f 20/61/16 28/62/16 27/63/16 19/64/16
f 21/65/17 29/66/17 28/67/17 20/68/17
f 22/69/18 30/70/18 29/71/18 21/72/18
f 23/73/19 31/74/19 30/75/19 22/76/19
f 24/77/20 32/78/20 31/79/20 23/80/20
f 17/81/21 25/82/21 32/83/21 24/84/21
f 14/85/22 25/86/22 26/87/22 9/88/22
f 9/89/23 26/90/23 27/91/23 2/92/23
f 2/93/24 27/94/24 28/95/24 1/96/24
f 1/97/25 28/98/25 29/99/25 12/100/25
f 12/101/26 29/102/26 30/103/26 15/104/26
f 15/105/27 30/106/27 31/107/27 3/108/27
f 3/109/28 31/110/28 32/111/28 4/112/28
f 4/113/29 32/114/29 25/115/29 14/116/29
f 30/117/30 22/118/30 17/119/30 25/120/30
f 11/121/31 12/122/31 9/123/31 10/124/31
f 28/125/32 30/126/32 25/127/32 27/128/32
f 17/129/33 22/130/33 20/131/33 19/132/33
o mesh
v 0.1875 1.5625 0.49375
v 0.1875 1.5625 0.24375000000000002
v 0.1875 1.0625 0.49375
v 0.1875 1.0625 0.24375000000000002
v -0.1875 1.5625 0.49375
v -0.1875 1.5625 0.24375000000000002
v -0.1875 1.0625 0.49375
v -0.1875 1.0625 0.24375000000000002
v 0.1875 1.1875 0.24375000000000002
v -0.1875 1.1875 0.24375000000000002
v -0.1875 1.1875 0.49375
v 0.1875 1.1875 0.49375
v 0.1875 1.4375 0.24375000000000002
v -0.1875 1.4375 0.24375000000000002
v -0.1875 1.4375 0.49375
v 0.1875 1.4375 0.49375
v 0.0625 1.4375 0.24375000000000002
v 0.0625 1.1875 0.24375000000000002
v 0.0625 1.0625 0.24375000000000002
v 0.0625 1.0625 0.49375
v 0.0625 1.1875 0.49375
v 0.0625 1.4375 0.49375
v 0.0625 1.5625 0.49375
v 0.0625 1.5625 0.24375000000000002
v -0.0625 1.4375 0.24375000000000002
v -0.0625 1.1875 0.24375000000000002
v -0.0625 1.0625 0.24375000000000002
v -0.0625 1.0625 0.49375
v -0.0625 1.1875 0.49375
v -0.0625 1.4375 0.49375
v -0.0625 1.5625 0.49375
v -0.0625 1.5625 0.24375000000000002
v -0.0625 1.4375 0.18125000000000002
v -0.0625 1.1875 0.18125000000000002
v -0.0625 1.1184016994374948 0.4657991502812526
v -0.0625 1.2434016994374948 0.4657991502812526
v -0.0625 1.4934016994374948 0.4657991502812526
v 0.0625 1.1875 0.18125000000000002
v 0.0625 1.4375 0.18125000000000002
vt 0.0546875 0.4453125
vt 0.0546875 0.4609375
vt 0.0234375 0.4609375
vt 0.0234375 0.4453125
vt 0.53125 0.5390625
vt 0.53125 0.5546875
vt 0.5 0.5546875
vt 0.5 0.5390625
vt 0.546875 0.53125
vt 0.53125 0.53125
vt 0.53125 0.5
vt 0.546875 0.5
vt 0.546875 0.4921875
vt 0.53125 0.4921875
vt 0.53125 0.4609375
vt 0.546875 0.4609375
vt 0.0703125 0.6015625
vt 0.0546875 0.6015625
vt 0.0546875 0.5859375
vt 0.0703125 0.5859375
vt 0.0234375 0.515625
vt 0.0390625 0.515625
vt 0.0390625 0.53125
vt 0.0234375 0.53125
vt 0.0234375 0.53125
vt 0.0390625 0.53125
vt 0.0390625 0.5625
vt 0.0234375 0.5625
vt 0.53125 0.5546875
vt 0.53125 0.5859375
vt 0.5 0.5859375
vt 0.5 0.5546875
vt 0.0703125 0.6328125
vt 0.0546875 0.6328125
vt 0.0546875 0.6015625
vt 0.0703125 0.6015625
vt 0.0546875 0.4609375
vt 0.0546875 0.4921875
vt 0.0234375 0.4921875
vt 0.0234375 0.4609375
vt 0.0234375 0.5625
vt 0.0390625 0.5625
vt 0.0390625 0.578125
vt 0.0234375 0.578125
vt 0.5 0.6015625
vt 0.5 0.5859375
vt 0.53125 0.5859375
vt 0.53125 0.6015625
vt 0.0703125 0.6484375
vt 0.0546875 0.6484375
vt 0.0546875 0.6328125
vt 0.0703125 0.6328125
vt 0.0234375 0.5078125
vt 0.0234375 0.4921875
vt 0.0546875 0.4921875
vt 0.0546875 0.5078125
vt 0.53125 0.96875
vt 0.546875 0.96875
vt 0.546875 1
vt 0.53125 1
vt 0.0390625 0.515625
vt 0.0546875 0.515625
vt 0.0546875 0.53125
vt 0.0390625 0.53125
vt 0.53125 0.4921875
vt 0.515625 0.4921875
vt 0.515625 0.4609375
vt 0.53125 0.4609375
vt 0.0546875 0.6015625
vt 0.0390625 0.6015625
vt 0.0390625 0.5859375
vt 0.0546875 0.5859375
vt 0.0546875 0.6328125
vt 0.0390625 0.6328125
vt 0.0390625 0.6015625
vt 0.0546875 0.6015625
vt 0.0546875 0.6484375
vt 0.0390625 0.6484375
vt 0.0390625 0.6328125
vt 0.0546875 0.6328125
vt 0.53125 0.53125
vt 0.515625 0.53125
vt 0.515625 0.5
vt 0.53125 0.5
vt 0.0390625 0.5625
vt 0.0546875 0.5625
vt 0.0546875 0.578125
vt 0.0390625 0.578125
vt 0.0703125 0.5625
vt 0.0546875 0.5625
vt 0.0546875 0.53125
vt 0.0703125 0.53125
vt 0.0703125 0.53125
vt 0.0546875 0.53125
vt 0.0546875 0.515625
vt 0.0703125 0.515625
vt 0.5 0.4609375
vt 0.515625 0.4609375
vt 0.515625 0.4921875
vt 0.5 0.4921875
vt 0.0234375 0.5859375
vt 0.0390625 0.5859375
vt 0.0390625 0.6015625
vt 0.0234375 0.6015625
vt 0.0234375 0.6015625
vt 0.0390625 0.6015625
vt 0.0390625 0.6328125
vt 0.0234375 0.6328125
vt 0.0234375 0.6328125
vt 0.0390625 0.6328125
vt 0.0390625 0.6484375
vt 0.0234375 0.6484375
vt 0.5 0.5
vt 0.515625 0.5
vt 0.515625 0.53125
vt 0.5 0.53125
vt 0.0703125 0.578125
vt 0.0546875 0.578125
vt 0.0546875 0.5625
vt 0.0703125 0.5625
vt 0.5 0.4453125
vt 0.515625 0.4453125
vt 0.515625 0.453125
vt 0.5 0.453125
vt 0.53125 0.7734375
vt 0.53125 0.7421875
vt 0.5390625 0.7421875
vt 0.5390625 0.7734375
vt 0.5390625 0.453125
vt 0.5234375 0.453125
vt 0.5234375 0.4453125
vt 0.5390625 0.4453125
vt 0.5390625 0.703125
vt 0.5390625 0.734375
vt 0.53125 0.734375
vt 0.53125 0.703125
vn 1 0 0
vn -1 0 0
vn 0 1 0
vn 0 -1 0
vn 0 0 1
vn 0 0 -1
vn 0 0 -1
vn -1 0 0
vn 0 0 1
vn 1 0 0
vn 0 0 -1
vn -1 0 0
vn 0 0 1
vn 1 0 0
vn 0 0 -1
vn 0 0 -1
vn 0 -1 0
vn 0 0 1
vn 0 0 1
vn 0 0 1
vn 0 1 0
vn 0 0 -1
vn 0 0 -1
vn 0 0 -1
vn 0 -1 0
vn 0 0 1
vn 0 0 1
vn 0 0 1
vn 0 1 0
vn 0 0 -1
vn 0 -1 0
vn -1 0 0
vn 0 1 0
vn 1 0 0
usemtl m_3f7be668-2a3d-cc85-5a92-2b44d04f4522
f 36/133/34 41/134/34 44/135/34 35/136/34
f 39/137/35 43/138/35 42/139/35 40/140/35
f 34/141/36 56/142/36 55/143/36 33/144/36
f 35/145/37 52/146/37 51/147/37 36/148/37
f 44/149/38 53/150/38 52/151/38 35/152/38
f 36/153/39 51/154/39 50/155/39 41/156/39
f 41/157/40 50/158/40 49/159/40 45/160/40
f 43/161/41 47/162/41 46/163/41 42/164/41
f 48/165/42 54/166/42 53/167/42 44/168/42
f 41/169/43 45/170/43 48/171/43 44/172/43
f 45/173/44 49/174/44 56/175/44 34/176/44
f 38/177/45 46/178/45 47/179/45 37/180/45
f 33/181/46 55/182/46 54/183/46 48/184/46
f 33/185/47 48/186/47 45/187/47 34/188/47
f 70/189/48 66/190/48 65/191/48 71/192/48
f 51/193/49 59/194/49 58/195/49 50/196/49
f 52/197/50 60/198/50 59/199/50 51/200/50
f 53/201/51 61/202/51 60/203/51 52/204/51
f 54/205/52 62/206/52 61/207/52 53/208/52
f 55/209/53 63/210/53 62/211/53 54/212/53
f 56/213/54 64/214/54 63/215/54 55/216/54
f 49/217/55 57/218/55 64/219/55 56/220/55
f 46/221/56 57/222/56 58/223/56 42/224/56
f 42/225/57 58/226/57 59/227/57 40/228/57
f 40/229/58 59/230/58 60/231/58 39/232/58
f 39/233/59 60/234/59 61/235/59 43/236/59
f 43/237/60 61/238/60 62/239/60 47/240/60
f 47/241/61 62/242/61 63/243/61 37/244/61
f 37/245/62 63/246/62 64/247/62 38/248/62
f 38/249/63 64/250/63 57/251/63 46/252/63
f 66/253/64 70/254/64 50/255/64 58/256/64
f 65/257/65 66/258/65 58/259/65 57/260/65
f 71/261/66 65/262/66 57/263/66 49/264/66
f 70/265/67 71/266/67 49/267/67 50/268/67
o mesh
v 0.0625 1.5625 0.1875
v 0.0625 1.5625 0.0625
v 0.0625 1.0625 0.1875
v 0.0625 1.0625 0.0625
v -0.0625 1.5625 0.1875
v -0.0625 1.5625 0.0625
v -0.0625 1.0625 0.1875
v -0.0625 1.0625 0.0625
v 0.0625 1.4375 0.0625
v -0.0625 1.4375 0.0625
v -0.0625 1.4375 0.1875
v 0.0625 1.4375 0.1875
v -0.0625 1.1875 0.0625
v 0.0625 1.1875 0.0625
v 0.0625 1.1875 0.1875
v -0.0625 1.1875 0.1875
v -0.125 1.5625 0.0625
v -0.125 1.4375 0.0625
v -0.125 1.4375 0.1875
v -0.125 1.5625 0.1875
v 0.0625 1.5625 0
v 0.0625 1.4375 0
v -0.0625 1.4375 0
v -0.0625 1.5625 0
v 0.125 1.5625 0.1875
v 0.125 1.4375 0.1875
v 0.125 1.4375 0.0625
v 0.125 1.5625 0.0625
v 0.0625 1.625 0.1875
v 0.0625 1.625 0.0625
v -0.0625 1.625 0.1875
v -0.0625 1.625 0.0625
v 0.0625 1 0.1875
v -0.0625 1 0.1875
v 0.0625 1 0.0625
v -0.0625 1 0.0625
v -0.0625 1.0625 0
v -0.0625 1.1875 0
v 0.0625 1.1875 0
v 0.0625 1.0625 0
v 0.125 1.0625 0.0625
v 0.125 1.1875 0.0625
v 0.125 1.1875 0.1875
v 0.125 1.0625 0.1875
v -0.125 1.0625 0.1875
v -0.125 1.1875 0.1875
v -0.125 1.1875 0.0625
v -0.125 1.0625 0.0625
v 0.03125 1.1875 0.1875
v 0.03125 1.4375 0.1875
v 0.03125 1.5625 0.1875
v 0.03125 1.625 0.1875
v 0.03125 1.625 0.0625
v 0.03125 1.5625 0.0625
v 0.03125 1.5625 0
v 0.03125 1.4375 0
v 0.03125 1.4375 0.0625
v 0.03125 1.1875 0.0625
v 0.03125 1.1875 0
v 0.03125 1.0625 0
v 0.03125 1.0625 0.0625
v 0.03125 1 0.0625
v 0.03125 1 0.1875
v 0.03125 1.0625 0.1875
v -0.03125 1.1875 0.1875
v -0.03125 1.4375 0.1875
v -0.03125 1.5625 0.1875
v -0.03125 1.625 0.1875
v -0.03125 1.625 0.0625
v -0.03125 1.5625 0.0625
v -0.03125 1.5625 0
v -0.03125 1.4375 0
v -0.03125 1.4375 0.0625
v -0.03125 1.1875 0.0625
v -0.03125 1.1875 0
v -0.03125 1.0625 0
v -0.03125 1.0625 0.0625
v -0.03125 1 0.0625
v -0.03125 1 0.1875
v -0.03125 1.0625 0.1875
vt 0.078125 0.6484375
vt 0.078125 0.6171875
vt 0.09375 0.6171875
vt 0.09375 0.6484375
vt 0.078125 0.609375
vt 0.078125 0.578125
vt 0.09375 0.578125
vt 0.09375 0.609375
vt 0.546875 0.9609375
vt 0.54296875 0.9609375
vt 0.54296875 0.9453125
vt 0.546875 0.9453125
vt 0.546875 0.9375
vt 0.54296875 0.9375
vt 0.54296875 0.921875
vt 0.546875 0.921875
vt 0.09375 0.4921875
vt 0.08984375 0.4921875
vt 0.08984375 0.4609375
vt 0.09375 0.4609375
vt 0.078125 0.5390625
vt 0.08203125 0.5390625
vt 0.08203125 0.5703125
vt 0.078125 0.5703125
vt 0.53125 0.8984375
vt 0.53515625 0.8984375
vt 0.53515625 0.9140625
vt 0.53125 0.9140625
vt 0.53125 0.890625
vt 0.53125 0.875
vt 0.546875 0.875
vt 0.546875 0.890625
vt 0.09375 0.5078125
vt 0.08984375 0.5078125
vt 0.08984375 0.4921875
vt 0.09375 0.4921875
vt 0.53125 0.8671875
vt 0.53125 0.8515625
vt 0.546875 0.8515625
vt 0.546875 0.8671875
vt 0.53125 0.828125
vt 0.53515625 0.828125
vt 0.53515625 0.84375
vt 0.53125 0.84375
vt 0.546875 0.8046875
vt 0.546875 0.8203125
vt 0.53125 0.8203125
vt 0.53125 0.8046875
vt 0.09375 0.4609375
vt 0.08984375 0.4609375
vt 0.08984375 0.4453125
vt 0.09375 0.4453125
vt 0.546875 0.78125
vt 0.546875 0.796875
vt 0.53125 0.796875
vt 0.53125 0.78125
vt 0.0703125 0.46875
vt 0.0703125 0.484375
vt 0.0625 0.484375
vt 0.0625 0.46875
vt 0.53125 0.6953125
vt 0.53125 0.6796875
vt 0.5390625 0.6796875
vt 0.5390625 0.6953125
vt 0.0703125 0.5078125
vt 0.0703125 0.4921875
vt 0.078125 0.4921875
vt 0.078125 0.5078125
vt 0.53125 0.671875
vt 0.53125 0.65625
vt 0.5390625 0.65625
vt 0.5390625 0.671875
vt 0.5390625 0.6328125
vt 0.5390625 0.6484375
vt 0.53125 0.6484375
vt 0.53125 0.6328125
vt 0.09375 0.53125
vt 0.08984375 0.53125
vt 0.08984375 0.5234375
vt 0.09375 0.5234375
vt 0.53125 0.625
vt 0.53125 0.609375
vt 0.5390625 0.609375
vt 0.5390625 0.625
vt 0.4140625 0.46875
vt 0.41015625 0.46875
vt 0.41015625 0.4609375
vt 0.4140625 0.4609375
vt 0.1015625 0.4921875
vt 0.1015625 0.5078125
vt 0.09375 0.5078125
vt 0.09375 0.4921875
vt 0.4296875 0.453125
vt 0.4296875 0.46875
vt 0.421875 0.46875
vt 0.421875 0.453125
vt 0.4375 0.46875
vt 0.4375 0.453125
vt 0.4453125 0.453125
vt 0.4453125 0.46875
vt 0.4609375 0.453125
vt 0.4609375 0.46875
vt 0.453125 0.46875
vt 0.453125 0.453125
vt 0.09375 0.515625
vt 0.08984375 0.515625
vt 0.08984375 0.5078125
vt 0.09375 0.5078125
vt 0.484375 0.46875
vt 0.46875 0.46875
vt 0.46875 0.4609375
vt 0.484375 0.4609375
vt 0.5390625 0.59375
vt 0.54296875 0.59375
vt 0.54296875 0.6015625
vt 0.5390625 0.6015625
vt 0.5546875 0.5859375
vt 0.5390625 0.5859375
vt 0.5390625 0.578125
vt 0.5546875 0.578125
vt 0.5390625 0.5625
vt 0.5546875 0.5625
vt 0.5546875 0.5703125
vt 0.5390625 0.5703125
vt 0.09375 0.4453125
vt 0.08984375 0.4453125
vt 0.08984375 0.4375
vt 0.09375 0.4375
vt 0.5390625 0.546875
vt 0.5546875 0.546875
vt 0.5546875 0.5546875
vt 0.5390625 0.5546875
vt 0.546875 0.765625
vt 0.55078125 0.765625
vt 0.55078125 0.7734375
vt 0.546875 0.7734375
vt 0.546875 0.7578125
vt 0.546875 0.7421875
vt 0.5546875 0.7421875
vt 0.5546875 0.7578125
vt 0.5625 0.734375
vt 0.55859375 0.734375
vt 0.55859375 0.7265625
vt 0.5625 0.7265625
vt 0.5546875 0.703125
vt 0.5546875 0.71875
vt 0.546875 0.71875
vt 0.546875 0.703125
vt 0.5625 0.6953125
vt 0.55859375 0.6953125
vt 0.55859375 0.6875
vt 0.5625 0.6875
vt 0.546875 0.6796875
vt 0.546875 0.6640625
vt 0.5546875 0.6640625
vt 0.5546875 0.6796875
vt 0.5546875 0.640625
vt 0.5546875 0.65625
vt 0.546875 0.65625
vt 0.546875 0.640625
vt 0.1015625 0.4453125
vt 0.1015625 0.4609375
vt 0.09375 0.4609375
vt 0.09375 0.4453125
vt 0.5546875 0.6171875
vt 0.5546875 0.6328125
vt 0.546875 0.6328125
vt 0.546875 0.6171875
vt 0.0703125 0.4609375
vt 0.0703125 0.4453125
vt 0.078125 0.4453125
vt 0.078125 0.4609375
vt 0.3984375 0.453125
vt 0.3984375 0.4375
vt 0.40625 0.4375
vt 0.40625 0.453125
vt 0.4765625 0.4375
vt 0.4765625 0.453125
vt 0.46875 0.453125
vt 0.46875 0.4375
vt 0.484375 0.453125
vt 0.484375 0.4375
vt 0.4921875 0.4375
vt 0.4921875 0.453125
vt 0.08984375 0.5078125
vt 0.08203125 0.5078125
vt 0.08203125 0.4921875
vt 0.08984375 0.4921875
vt 0.08984375 0.515625
vt 0.08203125 0.515625
vt 0.08203125 0.5078125
vt 0.08984375 0.5078125
vt 0.54296875 0.9609375
vt 0.53515625 0.9609375
vt 0.53515625 0.9453125
vt 0.54296875 0.9453125
vt 0.54296875 0.59375
vt 0.55078125 0.59375
vt 0.55078125 0.6015625
vt 0.54296875 0.6015625
vt 0.41015625 0.46875
vt 0.40234375 0.46875
vt 0.40234375 0.4609375
vt 0.41015625 0.4609375
vt 0.53515625 0.8984375
vt 0.54296875 0.8984375
vt 0.54296875 0.9140625
vt 0.53515625 0.9140625
vt 0.08984375 0.53125
vt 0.08203125 0.53125
vt 0.08203125 0.5234375
vt 0.08984375 0.5234375
vt 0.08203125 0.5390625
vt 0.08984375 0.5390625
vt 0.08984375 0.5703125
vt 0.08203125 0.5703125
vt 0.55859375 0.734375
vt 0.55078125 0.734375
vt 0.55078125 0.7265625
vt 0.55859375 0.7265625
vt 0.53515625 0.828125
vt 0.54296875 0.828125
vt 0.54296875 0.84375
vt 0.53515625 0.84375
vt 0.55859375 0.6953125
vt 0.55078125 0.6953125
vt 0.55078125 0.6875
vt 0.55859375 0.6875
vt 0.55078125 0.765625
vt 0.55859375 0.765625
vt 0.55859375 0.7734375
vt 0.55078125 0.7734375
vt 0.54296875 0.9375
vt 0.53515625 0.9375
vt 0.53515625 0.921875
vt 0.54296875 0.921875
vt 0.08984375 0.4453125
vt 0.08203125 0.4453125
vt 0.08203125 0.4375
vt 0.08984375 0.4375
vt 0.08984375 0.4609375
vt 0.08203125 0.4609375
vt 0.08203125 0.4453125
vt 0.08984375 0.4453125
vt 0.078125 0.4609375
vt 0.08203125 0.4609375
vt 0.08203125 0.4921875
vt 0.078125 0.4921875
vt 0.078125 0.4921875
vt 0.08203125 0.4921875
vt 0.08203125 0.5078125
vt 0.078125 0.5078125
vt 0.078125 0.5078125
vt 0.08203125 0.5078125
vt 0.08203125 0.515625
vt 0.078125 0.515625
vt 0.53125 0.9453125
vt 0.53515625 0.9453125
vt 0.53515625 0.9609375
vt 0.53125 0.9609375
vt 0.5546875 0.6015625
vt 0.55078125 0.6015625
vt 0.55078125 0.59375
vt 0.5546875 0.59375
vt 0.3984375 0.4609375
vt 0.40234375 0.4609375
vt 0.40234375 0.46875
vt 0.3984375 0.46875
vt 0.546875 0.9140625
vt 0.54296875 0.9140625
vt 0.54296875 0.8984375
vt 0.546875 0.8984375
vt 0.078125 0.5234375
vt 0.08203125 0.5234375
vt 0.08203125 0.53125
vt 0.078125 0.53125
vt 0.09375 0.5703125
vt 0.08984375 0.5703125
vt 0.08984375 0.5390625
vt 0.09375 0.5390625
vt 0.546875 0.7265625
vt 0.55078125 0.7265625
vt 0.55078125 0.734375
vt 0.546875 0.734375
vt 0.546875 0.84375
vt 0.54296875 0.84375
vt 0.54296875 0.828125
vt 0.546875 0.828125
vt 0.546875 0.6875
vt 0.55078125 0.6875
vt 0.55078125 0.6953125
vt 0.546875 0.6953125
vt 0.5625 0.7734375
vt 0.55859375 0.7734375
vt 0.55859375 0.765625
vt 0.5625 0.765625
vt 0.53125 0.921875
vt 0.53515625 0.921875
vt 0.53515625 0.9375
vt 0.53125 0.9375
vt 0.078125 0.4375
vt 0.08203125 0.4375
vt 0.08203125 0.4453125
vt 0.078125 0.4453125
vt 0.078125 0.4453125
vt 0.08203125 0.4453125
vt 0.08203125 0.4609375
vt 0.078125 0.4609375
vn 1 0 0
vn -1 0 0
vn 0 1 0
vn 0 -1 0
vn 0 0 1
vn 0 0 -1
vn 0 0 -1
vn -1 0 0
vn 0 0 1
vn 1 0 0
vn 0 0 -1
vn 1 0 0
vn 0 0 1
vn -1 0 0
vn 0 0 -1
vn 0 -1 0
vn 0 0 1
vn 0 1 0
vn 1 0 0
vn 0 -1 0
vn -1 0 0
vn 0 1 0
vn 0 0 1
vn 0 -1 0
vn 0 0 -1
vn 0 1 0
vn 0 0 1
vn 1 0 0
vn 0 0 -1
vn -1 0 0
vn 1 0 0
vn 0 0 1
vn -1 0 0
vn 0 0 -1
vn -1 0 0
vn 0 1 0
vn 1 0 0
vn 0 -1 0
vn 0 0 -1
vn 0 1 0
vn 0 0 1
vn 0 -1 0
vn 0 0 1
vn 0 1 0
vn 0 0 -1
vn 0 -1 0
vn 0 0 1
vn 0 0 1
vn 0 1 0
vn 0 0 -1
vn 0 1 0
vn 0 0 -1
vn 0 -1 0
vn 0 0 -1
vn 0 1 0
vn 0 0 -1
vn 0 -1 0
vn 0 0 -1
vn 0 -1 0
vn 0 0 1
vn 0 0 1
vn 0 0 1
vn 0 0 1
vn 0 0 1
vn 0 1 0
vn 0 0 -1
vn 0 1 0
vn 0 0 -1
vn 0 -1 0
vn 0 0 -1
vn 0 1 0
vn 0 0 -1
vn 0 -1 0
vn 0 0 -1
vn 0 -1 0
vn 0 0 1
vn 0 0 1
usemtl m_3f7be668-2a3d-cc85-5a92-2b44d04f4522
f 83/269/68 86/270/68 85/271/68 80/272/68
f 81/273/69 84/274/69 87/275/69 82/276/69
f 101/277/70 124/278/70 123/279/70 100/280/70
f 104/281/71 134/282/71 133/283/71 106/284/71
f 83/285/72 121/286/72 120/287/72 86/288/72
f 85/289/73 129/290/73 128/291/73 80/292/73
f 93/293/74 127/294/74 126/295/74 92/296/74
f 88/297/75 89/298/75 90/299/75 91/300/75
f 72/301/76 122/302/76 121/303/76 83/304/76
f 96/305/77 97/306/77 98/307/77 99/308/77
f 111/309/78 131/310/78 130/311/78 110/312/78
f 112/313/79 113/314/79 114/315/79 115/316/79
f 86/317/80 120/318/80 135/319/80 74/320/80
f 116/321/81 117/322/81 118/323/81 119/324/81
f 89/325/82 88/326/82 77/327/82 81/328/82
f 90/329/83 89/330/83 81/331/83 82/332/83
f 91/333/84 90/334/84 82/335/84 76/336/84
f 88/337/85 91/338/85 76/339/85 77/340/85
f 93/341/86 92/342/86 73/343/86 80/344/86
f 80/345/87 128/346/87 127/347/87 93/348/87
f 95/349/88 94/350/88 81/351/88 77/352/88
f 92/353/89 126/354/89 125/355/89 73/356/89
f 97/357/90 96/358/90 72/359/90 83/360/90
f 98/361/91 97/362/91 83/363/91 80/364/91
f 99/365/92 98/366/92 80/367/92 73/368/92
f 96/369/93 99/370/93 73/371/93 72/372/93
f 100/373/94 123/374/94 122/375/94 72/376/94
f 101/377/95 100/378/95 72/379/95 73/380/95
f 73/381/96 125/382/96 124/383/96 101/384/96
f 102/385/97 103/386/97 77/387/97 76/388/97
f 104/389/98 106/390/98 75/391/98 74/392/98
f 74/393/99 135/394/99 134/395/99 104/396/99
f 107/397/100 105/398/100 78/399/100 79/400/100
f 106/401/101 133/402/101 132/403/101 75/404/101
f 109/405/102 108/406/102 79/407/102 84/408/102
f 110/409/103 130/410/103 129/411/103 85/412/103
f 111/413/104 110/414/104 85/415/104 75/416/104
f 75/417/105 132/418/105 131/419/105 111/420/105
f 113/421/106 112/422/106 75/423/106 85/424/106
f 114/425/107 113/426/107 85/427/107 86/428/107
f 115/429/108 114/430/108 86/431/108 74/432/108
f 112/433/109 115/434/109 74/435/109 75/436/109
f 117/437/110 116/438/110 78/439/110 87/440/110
f 118/441/111 117/442/111 87/443/111 84/444/111
f 119/445/112 118/446/112 84/447/112 79/448/112
f 116/449/113 119/450/113 79/451/113 78/452/113
f 122/453/114 138/454/114 137/455/114 121/456/114
f 123/457/115 139/458/115 138/459/115 122/460/115
f 124/461/116 140/462/116 139/463/116 123/464/116
f 125/465/117 141/466/117 140/467/117 124/468/117
f 126/469/118 142/470/118 141/471/118 125/472/118
f 127/473/119 143/474/119 142/475/119 126/476/119
f 128/477/120 144/478/120 143/479/120 127/480/120
f 129/481/121 145/482/121 144/483/121 128/484/121
f 130/485/122 146/486/122 145/487/122 129/488/122
f 131/489/123 147/490/123 146/491/123 130/492/123
f 132/493/124 148/494/124 147/495/124 131/496/124
f 133/497/125 149/498/125 148/499/125 132/500/125
f 134/501/126 150/502/126 149/503/126 133/504/126
f 135/505/127 151/506/127 150/507/127 134/508/127
f 120/509/128 136/510/128 151/511/128 135/512/128
f 87/513/129 136/514/129 137/515/129 82/516/129
f 82/517/130 137/518/130 138/519/130 76/520/130
f 76/521/131 138/522/131 139/523/131 102/524/131
f 102/525/132 139/526/132 140/527/132 103/528/132
f 103/529/133 140/530/133 141/531/133 77/532/133
f 77/533/134 141/534/134 142/535/134 95/536/134
f 95/537/135 142/538/135 143/539/135 94/540/135
f 94/541/136 143/542/136 144/543/136 81/544/136
f 81/545/137 144/546/137 145/547/137 84/548/137
f 84/549/138 145/550/138 146/551/138 109/552/138
f 109/553/139 146/554/139 147/555/139 108/556/139
f 108/557/140 147/558/140 148/559/140 79/560/140
f 79/561/141 148/562/141 149/563/141 107/564/141
f 107/565/142 149/566/142 150/567/142 105/568/142
f 105/569/143 150/570/143 151/571/143 78/572/143
f 78/573/144 151/574/144 136/575/144 87/576/144